<svg xmlns="http://www.w3.org/2000/svg" xmlns:xlink="http://www.w3.org/1999/xlink" width="128" zoomAndPan="magnify" viewBox="0 0 96 95.999999" height="128" preserveAspectRatio="xMidYMid meet" version="1.0"><defs><clipPath id="41d7830752"><path d="M 0.371094 19 L 96 19 L 96 87.601562 L 0.371094 87.601562 Z M 0.371094 19 " clip-rule="nonzero"/></clipPath><clipPath id="840919cbf6"><path d="M 22 9.601562 L 52 9.601562 L 52 55 L 22 55 Z M 22 9.601562 " clip-rule="nonzero"/></clipPath></defs><g clip-path="url(#41d7830752)"><path fill="#ffffff" d="M 94.800781 34.324219 C 94.054688 33.355469 93.085938 32.832031 92.042969 32.832031 L 66.703125 32.832031 C 64.242188 32.832031 63.125 35.144531 62.679688 35.964844 L 59.773438 41.777344 C 59.621094 41.777344 59.398438 41.777344 59.25 41.777344 C 59.027344 41.777344 58.878906 41.777344 58.652344 41.777344 L 50.828125 41.777344 L 48.890625 44.757812 L 58.726562 44.757812 C 58.878906 44.757812 59.027344 44.757812 59.175781 44.757812 C 59.996094 44.832031 61.1875 44.832031 62.082031 43.789062 L 62.230469 43.640625 L 65.4375 37.230469 C 65.660156 36.859375 66.179688 35.738281 66.777344 35.738281 L 92.117188 35.738281 C 92.191406 35.738281 92.34375 35.8125 92.492188 36.039062 C 92.789062 36.410156 92.9375 37.007812 92.863281 37.378906 L 80.042969 83.066406 C 79.894531 83.738281 79.300781 84.1875 78.628906 84.1875 L 6.480469 84.1875 L 6.480469 83.441406 L 5.214844 83.441406 C 4.992188 83.066406 4.914062 82.621094 5.066406 82.25 L 16.246094 46.324219 C 16.46875 45.429688 17.214844 44.683594 17.660156 44.683594 L 24.890625 44.683594 L 22.953125 41.703125 L 17.660156 41.703125 C 15.574219 41.703125 13.859375 43.640625 13.335938 45.503906 L 3.351562 77.703125 L 3.351562 23.890625 C 3.351562 23.070312 4.019531 22.398438 4.839844 22.398438 L 26.230469 22.398438 L 26.230469 19.417969 L 4.839844 19.417969 C 2.382812 19.417969 0.371094 21.429688 0.371094 23.890625 L 0.371094 82.023438 C 0.371094 84.113281 1.859375 85.898438 3.871094 86.347656 C 4.617188 86.867188 5.511719 87.167969 6.480469 87.167969 L 78.554688 87.167969 C 80.566406 87.167969 82.355469 85.824219 82.875 83.886719 L 95.695312 38.199219 C 95.996094 37.007812 95.621094 35.441406 94.800781 34.324219 Z M 94.800781 34.324219 " fill-opacity="1" fill-rule="nonzero"/></g><g clip-path="url(#840919cbf6)"><path fill="#ffffff" d="M 44.34375 12.261719 C 44.195312 10.847656 43 9.726562 41.585938 9.726562 L 32.417969 9.726562 C 30.777344 9.726562 29.4375 11.070312 29.4375 12.710938 L 29.4375 31.34375 L 24.667969 31.34375 C 23.699219 31.34375 22.804688 31.863281 22.355469 32.757812 C 21.910156 33.652344 21.910156 34.621094 22.429688 35.441406 L 33.609375 52.660156 C 34.355469 53.777344 35.546875 54.449219 36.890625 54.449219 C 38.230469 54.449219 39.5 53.777344 40.167969 52.660156 L 51.273438 35.515625 C 51.796875 34.695312 51.871094 33.652344 51.347656 32.757812 C 50.828125 31.863281 50.082031 31.34375 49.039062 31.34375 L 44.34375 31.34375 L 44.34375 12.410156 C 44.34375 12.410156 44.34375 12.335938 44.34375 12.261719 Z M 48.515625 34.324219 L 37.710938 51.019531 C 37.410156 51.390625 37.039062 51.464844 36.890625 51.464844 C 36.742188 51.464844 36.367188 51.390625 36.070312 51.019531 L 25.261719 34.324219 L 30.925781 34.324219 C 31.746094 34.324219 32.417969 33.652344 32.417969 32.832031 L 32.417969 12.710938 L 41.363281 12.710938 L 41.363281 32.832031 C 41.363281 33.652344 42.03125 34.324219 42.851562 34.324219 Z M 48.515625 34.324219 " fill-opacity="1" fill-rule="nonzero"/></g><path fill="#ffffff" d="M 82.355469 29.851562 L 82.355469 23.890625 C 82.355469 21.429688 80.34375 19.417969 77.882812 19.417969 L 47.25 19.417969 L 47.25 22.398438 L 77.882812 22.398438 C 78.703125 22.398438 79.375 23.070312 79.375 23.890625 L 79.375 29.851562 Z M 82.355469 29.851562 " fill-opacity="1" fill-rule="nonzero"/></svg>