<svg xmlns="http://www.w3.org/2000/svg" xmlns:xlink="http://www.w3.org/1999/xlink" width="128" zoomAndPan="magnify" viewBox="0 0 96 95.999999" height="128" preserveAspectRatio="xMidYMid meet" version="1.0"><defs><clipPath id="63ecc1bcfc"><path d="M 3 11 L 93 11 L 93 90 L 3 90 Z M 3 11 " clip-rule="nonzero"/></clipPath><clipPath id="e8e3dcd4fd"><path d="M 52.464844 13.8125 L 91.535156 82.1875 C 92.457031 83.800781 92.453125 85.789062 91.515625 87.398438 C 90.582031 89.007812 88.863281 90 87 90 L 9 90 C 7.136719 90 5.417969 89.007812 4.484375 87.398438 C 3.546875 85.789062 3.542969 83.800781 4.464844 82.1875 L 43.535156 13.8125 C 44.449219 12.210938 46.15625 11.222656 48 11.222656 C 49.84375 11.222656 51.550781 12.210938 52.464844 13.8125 Z M 52.464844 13.8125 " clip-rule="nonzero"/></clipPath></defs><g clip-path="url(#63ecc1bcfc)"><g clip-path="url(#e8e3dcd4fd)"><path stroke-linecap="butt" transform="matrix(0.75, 0, 0, 0.75, 0.0000005, 6.000002)" fill="none" stroke-linejoin="miter" d="M 69.953128 10.416665 L 122.046881 101.583336 C 123.276047 103.734378 123.270839 106.38542 122.020839 108.531253 C 120.776047 110.677087 118.484381 112.000004 116.000005 112.000004 L 12 112.000004 C 9.515625 112.000004 7.223958 110.677087 5.979166 108.531253 C 4.729166 106.38542 4.723958 103.734378 5.953125 101.583336 L 58.046877 10.416665 C 59.265627 8.281248 61.541669 6.96354 64.000003 6.96354 C 66.458336 6.96354 68.734378 8.281248 69.953128 10.416665 Z M 69.953128 10.416665 " stroke="#000000" stroke-width="10" stroke-opacity="1" stroke-miterlimit="4"/></g></g></svg>