<svg xmlns="http://www.w3.org/2000/svg" xmlns:xlink="http://www.w3.org/1999/xlink" width="128" zoomAndPan="magnify" viewBox="0 0 96 95.999999" height="128" preserveAspectRatio="xMidYMid meet" version="1.0"><defs><clipPath id="7b7f5334da"><path d="M 3.46875 6 L 92.390625 6 L 92.390625 85 L 3.46875 85 Z M 3.46875 6 " clip-rule="nonzero"/></clipPath><clipPath id="e5d9cb27e3"><path d="M 43.535156 82.1875 L 4.464844 13.8125 C 3.542969 12.199219 3.546875 10.210938 4.484375 8.601562 C 5.417969 6.992188 7.136719 6 9 6 L 87 6 C 88.863281 6 90.582031 6.992188 91.515625 8.601562 C 92.453125 10.210938 92.457031 12.199219 91.535156 13.8125 L 52.464844 82.1875 C 51.550781 83.789062 49.84375 84.777344 48 84.777344 C 46.15625 84.777344 44.449219 83.789062 43.535156 82.1875 Z M 43.535156 82.1875 " clip-rule="nonzero"/></clipPath></defs><g clip-path="url(#7b7f5334da)"><g clip-path="url(#e5d9cb27e3)"><path fill="#ffffff" d="M 96 90 L -0.140625 90 L -0.140625 6 L 96 6 Z M 96 90 " fill-opacity="1" fill-rule="nonzero"/></g></g></svg>