<svg xmlns="http://www.w3.org/2000/svg" xmlns:xlink="http://www.w3.org/1999/xlink" width="128" zoomAndPan="magnify" viewBox="0 0 96 95.999999" height="128" preserveAspectRatio="xMidYMid meet" version="1.0"><path fill="#ffffff" d="M 13.199219 89.121094 C 14.867188 91.066406 16.117188 86.617188 34.316406 86.617188 C 41.816406 86.617188 47.929688 87.453125 48.070312 87.453125 C 53.210938 88.5625 57.378906 87.3125 59.042969 85.925781 C 59.042969 85.925781 59.183594 85.785156 59.183594 85.785156 C 60.574219 84.535156 76.964844 75.78125 86.96875 70.640625 C 96 66.195312 89.75 59.804688 85.300781 59.945312 C 84.050781 46.050781 68.492188 25.210938 65.714844 21.601562 L 69.1875 8.261719 C 69.324219 7.566406 69.1875 6.875 68.769531 6.457031 C 68.074219 5.625 66.824219 5.34375 65.851562 6.039062 L 64.324219 7.152344 L 61.546875 5.34375 C 60.851562 4.929688 59.878906 4.929688 59.183594 5.34375 L 56.40625 7.152344 L 53.625 5.34375 C 52.933594 4.929688 51.960938 4.929688 51.265625 5.34375 L 48.484375 7.152344 L 45.707031 5.34375 C 45.011719 4.929688 44.039062 4.929688 43.347656 5.34375 L 40.566406 7.152344 L 39.039062 6.039062 C 38.066406 5.484375 36.816406 5.625 36.121094 6.457031 C 35.289062 6.875 35.148438 7.566406 35.425781 8.261719 L 38.898438 21.601562 C 35.984375 25.488281 19.449219 47.71875 19.3125 61.472656 C 18.617188 61.890625 18.0625 62.304688 17.644531 62.585938 C 11.390625 67.167969 6.390625 69.253906 0.972656 71.890625 C 0.554688 72.03125 0.277344 72.449219 0.140625 72.863281 C 0 73.28125 0.140625 73.699219 0.417969 74.117188 Z M 39.039062 9.511719 C 39.734375 9.929688 40.707031 9.929688 41.402344 9.511719 L 44.179688 7.707031 L 46.957031 9.511719 C 47.652344 9.929688 48.625 9.929688 49.320312 9.511719 L 52.097656 7.707031 L 54.878906 9.511719 C 55.570312 9.929688 56.542969 9.929688 57.238281 9.511719 L 60.015625 7.707031 L 62.796875 9.511719 C 63.492188 9.929688 64.464844 9.929688 65.15625 9.511719 L 65.714844 9.097656 L 63.074219 20.488281 L 41.402344 20.488281 L 38.484375 9.097656 Z M 40.984375 23.265625 L 63.492188 23.265625 C 66.269531 26.878906 81.691406 47.71875 82.523438 60.640625 L 61.40625 67.726562 C 60.296875 64.945312 56.960938 64.113281 55.15625 64.113281 C 42.511719 63.558594 30.425781 60.222656 30.425781 60.222656 C 27.648438 59.25 24.867188 59.25 22.089844 60.222656 C 23.0625 47.300781 38.34375 26.878906 40.984375 23.265625 Z M 19.171875 64.808594 C 22.230469 62.445312 25.839844 61.472656 29.59375 62.863281 C 30.148438 63 42.09375 66.335938 55.15625 66.890625 C 59.601562 66.890625 63.492188 72.863281 49.042969 74.53125 C 48.347656 74.671875 47.792969 75.367188 47.792969 76.058594 C 47.929688 76.753906 48.484375 77.3125 49.179688 77.3125 C 49.179688 77.3125 49.320312 77.3125 49.320312 77.3125 C 54.042969 76.753906 61.40625 75.226562 61.960938 70.503906 L 84.46875 63 C 84.46875 63 85.023438 62.863281 85.582031 62.863281 C 87.664062 62.863281 89.054688 65.222656 88.914062 65.78125 C 88.777344 66.195312 88.359375 67.167969 85.859375 68.417969 C 79.746094 71.613281 59.738281 81.894531 57.378906 83.980469 C 55.15625 85.648438 51.402344 85.507812 48.625 84.953125 C 39.179688 83.5625 24.3125 83.285156 14.867188 86.757812 L 3.75 73.976562 C 9.03125 71.199219 14.03125 68.695312 19.171875 64.808594 Z M 19.171875 64.808594 " fill-opacity="1" fill-rule="nonzero"/><path fill="#ffffff" d="M 52.238281 60.777344 C 61.128906 60.777344 68.214844 53.554688 68.214844 44.800781 C 68.214844 36.046875 60.988281 28.824219 52.238281 28.824219 C 43.347656 28.824219 36.261719 36.046875 36.261719 44.800781 C 36.261719 53.554688 43.347656 60.777344 52.238281 60.777344 Z M 52.238281 31.464844 C 59.601562 31.464844 65.4375 37.4375 65.4375 44.664062 C 65.4375 52.027344 59.460938 57.859375 52.238281 57.859375 C 44.875 57.859375 39.039062 51.886719 39.039062 44.664062 C 39.039062 37.4375 45.011719 31.464844 52.238281 31.464844 Z M 52.238281 31.464844 " fill-opacity="1" fill-rule="nonzero"/><path fill="#ffffff" d="M 47.792969 47.996094 L 46.125 49.941406 C 47.792969 51.332031 49.597656 52.164062 51.679688 52.441406 L 51.679688 54.109375 L 53.070312 54.109375 L 53.070312 52.441406 C 54.597656 52.304688 55.847656 51.886719 56.820312 51.054688 C 58.765625 49.246094 58.488281 46.191406 56.960938 44.800781 C 56.128906 44.105469 54.878906 43.550781 53.070312 43.132812 L 53.070312 38.828125 C 54.183594 38.964844 55.292969 39.382812 56.265625 40.078125 L 57.792969 37.992188 C 56.265625 37.019531 54.738281 36.464844 53.070312 36.328125 L 53.070312 35.355469 L 51.679688 35.355469 L 51.679688 36.464844 C 50.152344 36.605469 49.042969 37.019531 48.070312 37.855469 C 46.125 39.660156 46.402344 42.71875 47.929688 43.96875 C 48.765625 44.664062 50.015625 45.21875 51.679688 45.636719 L 51.679688 50.082031 C 50.429688 49.804688 49.042969 49.109375 47.792969 47.996094 Z M 53.210938 46.050781 C 54.183594 46.328125 54.738281 46.609375 55.015625 46.886719 C 55.710938 47.441406 55.710938 48.691406 54.878906 49.386719 C 54.460938 49.804688 53.90625 49.941406 53.210938 50.082031 Z M 50.015625 42.023438 C 49.457031 41.46875 49.320312 40.214844 50.152344 39.523438 C 50.570312 39.246094 51.125 38.964844 51.679688 38.964844 L 51.679688 42.855469 C 50.847656 42.578125 50.292969 42.300781 50.015625 42.023438 Z M 50.015625 42.023438 " fill-opacity="1" fill-rule="nonzero"/></svg>