<svg xmlns="http://www.w3.org/2000/svg" xmlns:xlink="http://www.w3.org/1999/xlink" width="128" zoomAndPan="magnify" viewBox="0 0 96 95.999999" height="128" preserveAspectRatio="xMidYMid meet" version="1.0"><path fill="#ffffff" d="M 96 21.816406 C 96 17 92.09375 13.089844 87.273438 13.089844 L 32.726562 13.089844 C 27.90625 13.089844 24 17 24 21.816406 C 24 26.636719 27.90625 30.546875 32.726562 30.546875 L 87.273438 30.546875 C 92.09375 30.546875 96 26.636719 96 21.816406 Z M 91.636719 21.816406 C 91.636719 24.230469 89.683594 26.183594 87.273438 26.183594 L 32.726562 26.183594 C 30.320312 26.183594 28.363281 24.230469 28.363281 21.816406 C 28.363281 19.40625 30.320312 17.453125 32.726562 17.453125 L 87.273438 17.453125 C 89.683594 17.453125 91.636719 19.40625 91.636719 21.816406 Z M 91.636719 21.816406 " fill-opacity="1" fill-rule="evenodd"/><path fill="#ffffff" d="M 96 47.984375 C 96 43.164062 92.09375 39.253906 87.273438 39.253906 L 32.726562 39.253906 C 27.90625 39.253906 24 43.164062 24 47.984375 C 24 52.800781 27.90625 56.710938 32.726562 56.710938 L 87.273438 56.710938 C 92.09375 56.710938 96 52.800781 96 47.984375 Z M 91.636719 47.984375 C 91.636719 50.394531 89.683594 52.347656 87.273438 52.347656 L 32.726562 52.347656 C 30.320312 52.347656 28.363281 50.394531 28.363281 47.984375 C 28.363281 45.570312 30.320312 43.617188 32.726562 43.617188 L 87.273438 43.617188 C 89.683594 43.617188 91.636719 45.570312 91.636719 47.984375 Z M 91.636719 47.984375 " fill-opacity="1" fill-rule="evenodd"/><path fill="#ffffff" d="M 96 74.148438 C 96 69.328125 92.09375 65.417969 87.273438 65.417969 L 32.726562 65.417969 C 27.90625 65.417969 24 69.328125 24 74.148438 C 24 78.964844 27.90625 82.875 32.726562 82.875 L 87.273438 82.875 C 92.09375 82.875 96 78.964844 96 74.148438 Z M 91.636719 74.148438 C 91.636719 76.558594 89.683594 78.511719 87.273438 78.511719 L 32.726562 78.511719 C 30.320312 78.511719 28.363281 76.558594 28.363281 74.148438 C 28.363281 71.734375 30.320312 69.785156 32.726562 69.785156 L 87.273438 69.785156 C 89.683594 69.785156 91.636719 71.734375 91.636719 74.148438 Z M 91.636719 74.148438 " fill-opacity="1" fill-rule="evenodd"/><path fill="#ffffff" d="M 9.820312 12.019531 C 4.402344 12.019531 0.00390625 16.417969 0.00390625 21.839844 C 0.00390625 27.257812 4.402344 31.65625 9.820312 31.65625 C 15.238281 31.65625 19.640625 27.257812 19.640625 21.839844 C 19.640625 16.417969 15.238281 12.019531 9.820312 12.019531 Z M 9.820312 16.382812 C 12.832031 16.382812 15.277344 18.828125 15.277344 21.839844 C 15.277344 24.851562 12.832031 27.292969 9.820312 27.292969 C 6.8125 27.292969 4.367188 24.851562 4.367188 21.839844 C 4.367188 18.828125 6.8125 16.382812 9.820312 16.382812 Z M 9.820312 16.382812 " fill-opacity="1" fill-rule="evenodd"/><path fill="#ffffff" d="M 9.820312 38.183594 C 4.402344 38.183594 0.00390625 42.582031 0.00390625 48.003906 C 0.00390625 53.421875 4.402344 57.820312 9.820312 57.820312 C 15.238281 57.820312 19.640625 53.421875 19.640625 48.003906 C 19.640625 42.582031 15.238281 38.183594 9.820312 38.183594 Z M 9.820312 42.546875 C 12.832031 42.546875 15.277344 44.992188 15.277344 48.003906 C 15.277344 51.015625 12.832031 53.457031 9.820312 53.457031 C 6.8125 53.457031 4.367188 51.015625 4.367188 48.003906 C 4.367188 44.992188 6.8125 42.546875 9.820312 42.546875 Z M 9.820312 42.546875 " fill-opacity="1" fill-rule="evenodd"/><path fill="#ffffff" d="M 9.820312 64.347656 C 4.402344 64.347656 0.00390625 68.746094 0.00390625 74.167969 C 0.00390625 79.585938 4.402344 83.984375 9.820312 83.984375 C 15.238281 83.984375 19.640625 79.585938 19.640625 74.167969 C 19.640625 68.746094 15.238281 64.347656 9.820312 64.347656 Z M 9.820312 68.710938 C 12.832031 68.710938 15.277344 71.15625 15.277344 74.167969 C 15.277344 77.179688 12.832031 79.621094 9.820312 79.621094 C 6.8125 79.621094 4.367188 77.179688 4.367188 74.167969 C 4.367188 71.15625 6.8125 68.710938 9.820312 68.710938 Z M 9.820312 68.710938 " fill-opacity="1" fill-rule="evenodd"/></svg>