<svg xmlns="http://www.w3.org/2000/svg" xmlns:xlink="http://www.w3.org/1999/xlink" width="128" zoomAndPan="magnify" viewBox="0 0 96 95.999999" height="128" preserveAspectRatio="xMidYMid meet" version="1.0"><defs><clipPath id="95e3b8847d"><path d="M 4.800781 0.265625 L 91.050781 0.265625 L 91.050781 95.515625 L 4.800781 95.515625 Z M 4.800781 0.265625 " clip-rule="nonzero"/></clipPath></defs><g clip-path="url(#95e3b8847d)"><path fill="#ffffff" d="M 52.542969 4.8125 C 28.691406 4.8125 9.355469 24.144531 9.355469 47.996094 C 9.355469 71.847656 28.691406 91.179688 52.542969 91.179688 C 65.085938 91.179688 76.382812 85.832031 84.277344 77.285156 C 63.863281 74.984375 47.996094 57.660156 47.996094 36.632812 C 47.996094 24.351562 53.40625 13.339844 61.964844 5.84375 C 58.933594 5.167969 55.78125 4.8125 52.542969 4.8125 Z M 4.8125 47.996094 C 4.8125 21.636719 26.179688 0.265625 52.542969 0.265625 C 57.8125 0.265625 62.886719 1.121094 67.632812 2.699219 C 68.449219 2.972656 69.042969 3.683594 69.164062 4.535156 C 69.285156 5.386719 68.917969 6.234375 68.210938 6.726562 C 58.738281 13.292969 52.542969 24.238281 52.542969 36.632812 C 52.542969 56.714844 68.824219 72.996094 88.90625 72.996094 C 89.769531 72.996094 90.558594 73.484375 90.945312 74.253906 C 91.328125 75.023438 91.246094 75.945312 90.726562 76.636719 C 82.023438 88.222656 68.15625 95.726562 52.542969 95.726562 C 26.179688 95.726562 4.8125 74.355469 4.8125 47.996094 Z M 4.8125 47.996094 " fill-opacity="1" fill-rule="evenodd"/></g></svg>