<svg xmlns="http://www.w3.org/2000/svg" xmlns:xlink="http://www.w3.org/1999/xlink" width="128" zoomAndPan="magnify" viewBox="0 0 96 95.999999" height="128" preserveAspectRatio="xMidYMid meet" version="1.0"><defs><clipPath id="0b08458bce"><path d="M 0 4.058594 L 96 4.058594 L 96 91.808594 L 0 91.808594 Z M 0 4.058594 " clip-rule="nonzero"/></clipPath></defs><g clip-path="url(#0b08458bce)"><path fill="#ffffff" d="M 62.570312 4.0625 L 85.164062 4.0625 C 88.144531 4.0625 90.855469 5.277344 92.816406 7.246094 C 94.78125 9.207031 96 11.921875 96 14.902344 L 96 44.214844 C 96 47.199219 94.785156 49.90625 92.816406 51.871094 C 90.855469 53.832031 88.140625 55.050781 85.164062 55.050781 L 62.570312 55.050781 C 59.585938 55.050781 56.875 53.832031 54.914062 51.871094 C 52.949219 49.90625 51.730469 47.199219 51.730469 44.214844 L 51.730469 14.902344 C 51.730469 11.917969 52.949219 9.207031 54.914062 7.246094 C 56.875 5.285156 59.585938 4.0625 62.570312 4.0625 Z M 10.851562 28.988281 L 33.445312 28.988281 C 35.1875 28.988281 36.769531 28.273438 37.917969 27.125 C 39.066406 25.972656 39.78125 24.394531 39.78125 22.652344 L 39.78125 14.902344 C 39.78125 13.160156 39.066406 11.574219 37.917969 10.425781 C 36.765625 9.277344 35.183594 8.5625 33.445312 8.5625 L 10.851562 8.5625 C 9.109375 8.5625 7.523438 9.28125 6.378906 10.425781 C 5.226562 11.578125 4.515625 13.160156 4.515625 14.902344 L 4.515625 22.652344 C 4.515625 24.394531 5.230469 25.976562 6.378906 27.125 C 7.523438 28.273438 9.109375 28.988281 10.851562 28.988281 Z M 33.445312 33.488281 L 10.851562 33.488281 C 7.867188 33.488281 5.15625 32.269531 3.195312 30.308594 C 1.234375 28.34375 0.0117188 25.632812 0.0117188 22.652344 L 0.0117188 14.902344 C 0.0117188 11.917969 1.230469 9.207031 3.195312 7.246094 C 5.15625 5.285156 7.871094 4.0625 10.851562 4.0625 L 33.445312 4.0625 C 36.429688 4.0625 39.136719 5.285156 41.101562 7.246094 C 43.0625 9.207031 44.28125 11.921875 44.28125 14.902344 L 44.28125 22.652344 C 44.28125 25.636719 43.0625 28.34375 41.101562 30.308594 C 39.136719 32.269531 36.425781 33.488281 33.445312 33.488281 Z M 10.851562 87.40625 L 33.445312 87.40625 C 35.1875 87.40625 36.769531 86.691406 37.917969 85.542969 C 39.070312 84.398438 39.78125 82.8125 39.78125 81.070312 L 39.78125 51.757812 C 39.78125 50.015625 39.070312 48.429688 37.917969 47.285156 C 36.765625 46.132812 35.1875 45.421875 33.445312 45.421875 L 10.851562 45.421875 C 9.109375 45.421875 7.523438 46.136719 6.378906 47.285156 C 5.226562 48.4375 4.515625 50.015625 4.515625 51.757812 L 4.515625 81.070312 C 4.515625 82.8125 5.230469 84.398438 6.378906 85.542969 C 7.523438 86.695312 9.109375 87.40625 10.851562 87.40625 Z M 33.445312 91.910156 L 10.851562 91.910156 C 7.867188 91.910156 5.15625 90.6875 3.195312 88.726562 C 1.234375 86.765625 0.0117188 84.050781 0.0117188 81.070312 L 0.0117188 51.757812 C 0.0117188 48.773438 1.230469 46.0625 3.195312 44.101562 C 5.15625 42.140625 7.871094 40.917969 10.851562 40.917969 L 33.445312 40.917969 C 36.429688 40.917969 39.136719 42.140625 41.101562 44.101562 C 43.0625 46.0625 44.28125 48.773438 44.28125 51.757812 L 44.28125 81.070312 C 44.28125 84.054688 43.0625 86.765625 41.101562 88.726562 C 39.136719 90.6875 36.429688 91.910156 33.445312 91.910156 Z M 62.574219 62.484375 L 85.167969 62.484375 C 88.152344 62.484375 90.859375 63.703125 92.824219 65.664062 C 94.785156 67.628906 96.003906 70.339844 96.003906 73.320312 L 96.003906 81.070312 C 96.003906 84.054688 94.785156 86.765625 92.824219 88.726562 C 90.859375 90.6875 88.144531 91.910156 85.167969 91.910156 L 62.574219 91.910156 C 59.589844 91.910156 56.878906 90.6875 54.917969 88.726562 C 52.957031 86.757812 51.734375 84.050781 51.734375 81.070312 L 51.734375 73.320312 C 51.734375 70.335938 52.957031 67.628906 54.917969 65.664062 C 56.878906 63.703125 59.589844 62.484375 62.574219 62.484375 Z M 85.167969 66.984375 L 62.574219 66.984375 C 60.832031 66.984375 59.246094 67.699219 58.097656 68.847656 C 56.949219 70 56.234375 71.578125 56.234375 73.320312 L 56.234375 81.070312 C 56.234375 82.8125 56.953125 84.398438 58.097656 85.542969 C 59.25 86.695312 60.832031 87.40625 62.574219 87.40625 L 85.167969 87.40625 C 86.910156 87.40625 88.492188 86.691406 89.640625 85.542969 C 90.792969 84.390625 91.503906 82.8125 91.503906 81.070312 L 91.503906 73.320312 C 91.503906 71.578125 90.789062 69.996094 89.640625 68.847656 C 88.488281 67.699219 86.910156 66.984375 85.167969 66.984375 Z M 85.167969 8.5625 L 62.574219 8.5625 C 60.832031 8.5625 59.246094 9.28125 58.097656 10.425781 C 56.949219 11.574219 56.234375 13.160156 56.234375 14.902344 L 56.234375 44.214844 C 56.234375 45.957031 56.953125 47.539062 58.097656 48.6875 C 59.25 49.839844 60.832031 50.550781 62.574219 50.550781 L 85.167969 50.550781 C 86.910156 50.550781 88.492188 49.835938 89.640625 48.6875 C 90.792969 47.535156 91.503906 45.957031 91.503906 44.214844 L 91.503906 14.902344 C 91.503906 13.160156 90.789062 11.574219 89.640625 10.425781 C 88.488281 9.277344 86.910156 8.5625 85.167969 8.5625 Z M 85.167969 8.5625 " fill-opacity="1" fill-rule="nonzero"/></g></svg>