<svg xmlns="http://www.w3.org/2000/svg" xmlns:xlink="http://www.w3.org/1999/xlink" width="128" zoomAndPan="magnify" viewBox="0 0 96 95.999999" height="128" preserveAspectRatio="xMidYMid meet" version="1.0"><path fill="#ffffff" d="M 13.65625 95.035156 L 26.46875 91.273438 C 28.582031 90.644531 30.410156 89.546875 31.964844 87.980469 L 91.0625 28.882812 C 95.636719 24.308594 96.082031 17.316406 92.058594 13.289062 L 83.003906 4.234375 C 78.980469 0.207031 71.984375 0.65625 67.410156 5.234375 L 8.3125 64.328125 C 6.75 65.878906 5.652344 67.710938 5.019531 69.820312 L 1.261719 82.636719 C 0.972656 83.503906 0.808594 84.390625 0.765625 85.304688 C 0.722656 86.214844 0.800781 87.117188 1.003906 88.007812 C 1.207031 88.894531 1.523438 89.742188 1.957031 90.546875 C 2.390625 91.347656 2.921875 92.078125 3.554688 92.738281 C 4.46875 93.640625 5.519531 94.332031 6.710938 94.8125 C 7.902344 95.292969 9.140625 95.527344 10.425781 95.511719 C 11.527344 95.507812 12.601562 95.347656 13.65625 95.035156 Z M 72.949219 10.773438 C 73.808594 9.863281 74.867188 9.375 76.117188 9.3125 C 76.628906 9.28125 77.078125 9.4375 77.460938 9.777344 L 86.515625 18.832031 C 87.347656 19.660156 87.097656 21.765625 85.519531 23.34375 L 76.453125 32.414062 L 63.882812 19.84375 Z M 8.78125 84.84375 L 12.539062 72.027344 C 12.796875 71.199219 13.234375 70.480469 13.851562 69.871094 L 58.339844 25.382812 L 70.910156 37.953125 L 26.421875 82.441406 C 25.8125 83.058594 25.09375 83.496094 24.265625 83.753906 L 11.449219 87.515625 C 11.058594 87.679688 10.652344 87.734375 10.230469 87.675781 C 9.808594 87.621094 9.433594 87.460938 9.097656 87.195312 C 8.835938 86.863281 8.675781 86.484375 8.617188 86.0625 C 8.5625 85.640625 8.613281 85.234375 8.78125 84.84375 Z M 8.78125 84.84375 " fill-opacity="1" fill-rule="nonzero"/></svg>