<svg xmlns="http://www.w3.org/2000/svg" xmlns:xlink="http://www.w3.org/1999/xlink" width="128" zoomAndPan="magnify" viewBox="0 0 96 95.999999" height="128" preserveAspectRatio="xMidYMid meet" version="1.0"><path fill="#ffffff" d="M 46.5 6 C 45.863281 6 45.222656 6.03125 44.589844 6.09375 C 43.953125 6.15625 43.320312 6.25 42.695312 6.375 C 42.070312 6.5 41.449219 6.652344 40.839844 6.839844 C 40.226562 7.023438 39.628906 7.238281 39.039062 7.484375 C 38.449219 7.730469 37.871094 8 37.308594 8.300781 C 36.746094 8.605469 36.199219 8.929688 35.667969 9.285156 C 35.136719 9.640625 34.621094 10.019531 34.128906 10.425781 C 33.636719 10.832031 33.164062 11.261719 32.710938 11.710938 C 32.261719 12.164062 31.832031 12.636719 31.425781 13.128906 C 31.019531 13.621094 30.640625 14.136719 30.285156 14.667969 C 29.929688 15.199219 29.605469 15.746094 29.300781 16.308594 C 29 16.871094 28.730469 17.449219 28.484375 18.039062 C 28.238281 18.628906 28.023438 19.226562 27.839844 19.839844 C 27.652344 20.449219 27.5 21.070312 27.375 21.695312 C 27.25 22.320312 27.15625 22.953125 27.09375 23.589844 C 27.03125 24.222656 27 24.863281 27 25.5 C 27 26.136719 27.03125 26.777344 27.09375 27.410156 C 27.15625 28.046875 27.25 28.679688 27.375 29.304688 C 27.5 29.929688 27.652344 30.550781 27.839844 31.160156 C 28.023438 31.773438 28.238281 32.371094 28.484375 32.960938 C 28.730469 33.550781 29 34.128906 29.300781 34.691406 C 29.605469 35.253906 29.929688 35.800781 30.285156 36.332031 C 30.640625 36.863281 31.019531 37.378906 31.425781 37.871094 C 31.832031 38.363281 32.261719 38.835938 32.710938 39.289062 C 33.164062 39.738281 33.636719 40.167969 34.128906 40.574219 C 34.621094 40.980469 35.136719 41.359375 35.667969 41.714844 C 36.199219 42.070312 36.746094 42.394531 37.308594 42.699219 C 37.871094 43 38.449219 43.269531 39.039062 43.515625 C 39.628906 43.761719 40.226562 43.976562 40.839844 44.160156 C 41.449219 44.347656 42.070312 44.5 42.695312 44.625 C 43.320312 44.75 43.953125 44.84375 44.589844 44.90625 C 45.222656 44.96875 45.863281 45 46.5 45 C 47.136719 45 47.777344 44.96875 48.410156 44.90625 C 49.046875 44.84375 49.679688 44.75 50.304688 44.625 C 50.929688 44.5 51.550781 44.347656 52.160156 44.160156 C 52.773438 43.976562 53.371094 43.761719 53.960938 43.515625 C 54.550781 43.269531 55.128906 43 55.691406 42.699219 C 56.253906 42.394531 56.800781 42.070312 57.332031 41.714844 C 57.863281 41.359375 58.378906 40.980469 58.871094 40.574219 C 59.363281 40.167969 59.835938 39.738281 60.289062 39.289062 C 60.738281 38.835938 61.167969 38.363281 61.574219 37.871094 C 61.980469 37.378906 62.359375 36.863281 62.714844 36.332031 C 63.070312 35.800781 63.394531 35.253906 63.699219 34.691406 C 64 34.128906 64.269531 33.550781 64.515625 32.960938 C 64.761719 32.371094 64.976562 31.773438 65.160156 31.160156 C 65.347656 30.550781 65.5 29.929688 65.625 29.304688 C 65.75 28.679688 65.84375 28.046875 65.90625 27.410156 C 65.96875 26.777344 66 26.136719 66 25.5 C 66 24.863281 65.96875 24.222656 65.90625 23.589844 C 65.84375 22.953125 65.75 22.320312 65.625 21.695312 C 65.5 21.070312 65.347656 20.449219 65.160156 19.839844 C 64.976562 19.226562 64.761719 18.628906 64.515625 18.039062 C 64.269531 17.449219 64 16.871094 63.699219 16.308594 C 63.394531 15.746094 63.070312 15.199219 62.714844 14.667969 C 62.359375 14.136719 61.980469 13.621094 61.574219 13.128906 C 61.167969 12.636719 60.738281 12.164062 60.289062 11.710938 C 59.835938 11.261719 59.363281 10.832031 58.871094 10.425781 C 58.378906 10.019531 57.863281 9.640625 57.332031 9.285156 C 56.800781 8.929688 56.253906 8.605469 55.691406 8.300781 C 55.128906 8 54.550781 7.730469 53.960938 7.484375 C 53.371094 7.238281 52.773438 7.023438 52.160156 6.839844 C 51.550781 6.652344 50.929688 6.5 50.304688 6.375 C 49.679688 6.25 49.046875 6.15625 48.410156 6.09375 C 47.777344 6.03125 47.136719 6 46.5 6 Z M 46.5 42 C 45.960938 42 45.421875 41.972656 44.882812 41.921875 C 44.34375 41.867188 43.8125 41.789062 43.28125 41.683594 C 42.75 41.578125 42.226562 41.445312 41.710938 41.289062 C 41.191406 41.132812 40.683594 40.949219 40.1875 40.742188 C 39.6875 40.539062 39.199219 40.304688 38.722656 40.050781 C 38.246094 39.796875 37.78125 39.519531 37.332031 39.21875 C 36.882812 38.917969 36.449219 38.597656 36.03125 38.253906 C 35.613281 37.910156 35.214844 37.550781 34.832031 37.167969 C 34.449219 36.785156 34.089844 36.386719 33.746094 35.96875 C 33.402344 35.550781 33.082031 35.117188 32.78125 34.667969 C 32.480469 34.21875 32.203125 33.753906 31.949219 33.277344 C 31.695312 32.800781 31.460938 32.3125 31.257812 31.8125 C 31.050781 31.316406 30.867188 30.808594 30.710938 30.289062 C 30.554688 29.773438 30.421875 29.25 30.316406 28.71875 C 30.210938 28.1875 30.132812 27.65625 30.078125 27.117188 C 30.027344 26.578125 30 26.039062 30 25.5 C 30 24.960938 30.027344 24.421875 30.078125 23.882812 C 30.132812 23.34375 30.210938 22.8125 30.316406 22.28125 C 30.421875 21.75 30.554688 21.226562 30.710938 20.710938 C 30.867188 20.191406 31.050781 19.683594 31.257812 19.1875 C 31.460938 18.6875 31.695312 18.199219 31.949219 17.722656 C 32.203125 17.246094 32.480469 16.78125 32.78125 16.332031 C 33.082031 15.882812 33.402344 15.449219 33.746094 15.03125 C 34.089844 14.613281 34.449219 14.214844 34.832031 13.832031 C 35.214844 13.449219 35.613281 13.089844 36.03125 12.746094 C 36.449219 12.402344 36.882812 12.082031 37.332031 11.78125 C 37.78125 11.480469 38.246094 11.203125 38.722656 10.949219 C 39.199219 10.695312 39.6875 10.460938 40.1875 10.257812 C 40.683594 10.050781 41.191406 9.867188 41.710938 9.710938 C 42.226562 9.554688 42.75 9.421875 43.28125 9.316406 C 43.8125 9.210938 44.34375 9.132812 44.882812 9.078125 C 45.421875 9.027344 45.960938 9 46.5 9 C 47.039062 9 47.578125 9.027344 48.117188 9.078125 C 48.65625 9.132812 49.1875 9.210938 49.71875 9.316406 C 50.25 9.421875 50.773438 9.554688 51.289062 9.710938 C 51.808594 9.867188 52.316406 10.050781 52.8125 10.257812 C 53.3125 10.460938 53.800781 10.695312 54.277344 10.949219 C 54.753906 11.203125 55.21875 11.480469 55.667969 11.78125 C 56.117188 12.082031 56.550781 12.402344 56.96875 12.746094 C 57.386719 13.089844 57.785156 13.449219 58.167969 13.832031 C 58.550781 14.214844 58.910156 14.613281 59.253906 15.03125 C 59.597656 15.449219 59.917969 15.882812 60.21875 16.332031 C 60.519531 16.78125 60.796875 17.246094 61.050781 17.722656 C 61.304688 18.199219 61.539062 18.6875 61.742188 19.1875 C 61.949219 19.683594 62.132812 20.191406 62.289062 20.710938 C 62.445312 21.226562 62.578125 21.75 62.683594 22.28125 C 62.789062 22.8125 62.867188 23.34375 62.921875 23.882812 C 62.972656 24.421875 63 24.960938 63 25.5 C 63 26.039062 62.972656 26.578125 62.921875 27.117188 C 62.867188 27.65625 62.789062 28.1875 62.683594 28.71875 C 62.578125 29.25 62.445312 29.773438 62.289062 30.289062 C 62.132812 30.808594 61.949219 31.316406 61.742188 31.8125 C 61.539062 32.3125 61.304688 32.800781 61.050781 33.277344 C 60.796875 33.753906 60.519531 34.21875 60.21875 34.667969 C 59.917969 35.117188 59.597656 35.550781 59.253906 35.96875 C 58.910156 36.386719 58.550781 36.785156 58.167969 37.167969 C 57.785156 37.550781 57.386719 37.910156 56.96875 38.253906 C 56.550781 38.597656 56.117188 38.917969 55.667969 39.21875 C 55.21875 39.519531 54.753906 39.796875 54.277344 40.050781 C 53.800781 40.304688 53.3125 40.539062 52.8125 40.742188 C 52.316406 40.949219 51.808594 41.132812 51.289062 41.289062 C 50.773438 41.445312 50.25 41.578125 49.71875 41.683594 C 49.1875 41.789062 48.65625 41.867188 48.117188 41.921875 C 47.578125 41.972656 47.039062 42 46.5 42 Z M 46.5 42 " fill-opacity="1" fill-rule="nonzero"/><path fill="#ffffff" d="M 48.613281 18.886719 C 49.203125 19.46875 49.496094 20.171875 49.5 21 L 52.5 21 C 52.5 20.203125 52.347656 19.4375 52.042969 18.703125 C 51.742188 17.96875 51.308594 17.316406 50.746094 16.753906 C 49.96875 16 49.054688 15.5 48 15.253906 L 48 13.5 L 45 13.5 L 45 15.253906 C 43.945312 15.5 43.03125 16 42.253906 16.753906 C 41.835938 17.175781 41.484375 17.644531 41.203125 18.167969 C 40.925781 18.691406 40.726562 19.246094 40.609375 19.828125 C 40.496094 20.410156 40.464844 20.996094 40.523438 21.585938 C 40.582031 22.179688 40.726562 22.75 40.953125 23.296875 C 41.179688 23.84375 41.480469 24.347656 41.859375 24.808594 C 42.234375 25.265625 42.671875 25.660156 43.164062 25.992188 C 43.65625 26.320312 44.1875 26.570312 44.757812 26.742188 C 45.324219 26.914062 45.90625 27 46.5 27 C 47.324219 27 48.03125 27.289062 48.613281 27.871094 C 49.207031 28.457031 49.5 29.167969 49.5 30 C 49.496094 30.828125 49.203125 31.53125 48.613281 32.113281 C 48.332031 32.394531 48.011719 32.609375 47.644531 32.761719 C 47.277344 32.910156 46.894531 32.988281 46.5 32.988281 C 46.105469 32.988281 45.722656 32.910156 45.355469 32.761719 C 44.988281 32.609375 44.667969 32.394531 44.386719 32.113281 C 43.796875 31.53125 43.503906 30.828125 43.5 30 L 40.5 30 C 40.503906 30.664062 40.613281 31.308594 40.828125 31.9375 C 41.042969 32.5625 41.355469 33.136719 41.761719 33.664062 C 42.167969 34.1875 42.652344 34.628906 43.203125 34.996094 C 43.757812 35.359375 44.359375 35.625 45 35.789062 L 45 37.5 L 48 37.5 L 48 35.789062 C 48.699219 35.601562 49.34375 35.292969 49.929688 34.871094 C 50.515625 34.449219 51.011719 33.9375 51.414062 33.335938 C 51.816406 32.734375 52.101562 32.082031 52.269531 31.375 C 52.433594 30.671875 52.472656 29.960938 52.378906 29.242188 C 52.289062 28.523438 52.074219 27.84375 51.738281 27.203125 C 51.398438 26.5625 50.960938 26.003906 50.421875 25.519531 C 49.878906 25.039062 49.273438 24.667969 48.597656 24.40625 C 47.921875 24.144531 47.222656 24.007812 46.5 24 C 45.894531 23.996094 45.34375 23.828125 44.839844 23.492188 C 44.335938 23.152344 43.972656 22.707031 43.742188 22.144531 C 43.507812 21.585938 43.453125 21.011719 43.570312 20.417969 C 43.6875 19.824219 43.957031 19.3125 44.386719 18.886719 C 44.667969 18.605469 44.988281 18.390625 45.355469 18.238281 C 45.722656 18.089844 46.105469 18.011719 46.5 18.011719 C 46.894531 18.011719 47.277344 18.089844 47.644531 18.238281 C 48.011719 18.390625 48.332031 18.605469 48.613281 18.886719 Z M 48.613281 18.886719 " fill-opacity="1" fill-rule="nonzero"/><path fill="#ffffff" d="M 82.5 0 L 28.5 0 C 27.8125 0 27.128906 0.0664062 26.453125 0.203125 C 25.773438 0.335938 25.117188 0.535156 24.480469 0.800781 C 23.84375 1.0625 23.238281 1.386719 22.667969 1.769531 C 22.09375 2.152344 21.5625 2.585938 21.074219 3.074219 C 20.585938 3.5625 20.152344 4.09375 19.769531 4.667969 C 19.386719 5.238281 19.0625 5.84375 18.800781 6.480469 C 18.535156 7.117188 18.335938 7.773438 18.203125 8.453125 C 18.066406 9.128906 18 9.8125 18 10.5 L 18 84 L 4.5 84 C 4.300781 84 4.109375 84.039062 3.925781 84.113281 C 3.742188 84.191406 3.578125 84.296875 3.4375 84.4375 C 3.296875 84.578125 3.191406 84.742188 3.113281 84.925781 C 3.039062 85.109375 3 85.300781 3 85.5 C 3 86.1875 3.066406 86.871094 3.203125 87.546875 C 3.335938 88.226562 3.535156 88.882812 3.800781 89.519531 C 4.0625 90.15625 4.386719 90.761719 4.769531 91.332031 C 5.152344 91.90625 5.585938 92.4375 6.074219 92.925781 C 6.5625 93.414062 7.09375 93.847656 7.667969 94.230469 C 8.238281 94.613281 8.84375 94.9375 9.480469 95.199219 C 10.117188 95.464844 10.773438 95.664062 11.453125 95.796875 C 12.128906 95.933594 12.8125 96 13.5 96 L 64.5 96 C 65.1875 96 65.871094 95.933594 66.546875 95.796875 C 67.226562 95.664062 67.882812 95.464844 68.519531 95.199219 C 69.15625 94.9375 69.761719 94.613281 70.332031 94.230469 C 70.90625 93.847656 71.4375 93.414062 71.925781 92.925781 C 72.414062 92.4375 72.847656 91.90625 73.230469 91.332031 C 73.613281 90.761719 73.9375 90.15625 74.199219 89.519531 C 74.464844 88.882812 74.664062 88.226562 74.796875 87.546875 C 74.933594 86.871094 75 86.1875 75 85.5 L 75 78 L 72 78 L 72 85.5 C 72 85.992188 71.953125 86.480469 71.855469 86.964844 C 71.761719 87.445312 71.617188 87.914062 71.429688 88.371094 C 71.242188 88.824219 71.007812 89.257812 70.734375 89.667969 C 70.460938 90.078125 70.152344 90.453125 69.804688 90.804688 C 69.453125 91.152344 69.078125 91.460938 68.667969 91.734375 C 68.257812 92.007812 67.824219 92.242188 67.371094 92.429688 C 66.914062 92.617188 66.445312 92.761719 65.964844 92.855469 C 65.480469 92.953125 64.992188 93 64.5 93 C 64.007812 93 63.519531 92.953125 63.035156 92.855469 C 62.554688 92.761719 62.085938 92.617188 61.628906 92.429688 C 61.175781 92.242188 60.742188 92.007812 60.332031 91.734375 C 59.921875 91.460938 59.542969 91.152344 59.195312 90.804688 C 58.847656 90.453125 58.539062 90.078125 58.265625 89.667969 C 57.992188 89.257812 57.757812 88.824219 57.570312 88.371094 C 57.382812 87.914062 57.238281 87.445312 57.144531 86.964844 C 57.046875 86.480469 57 85.992188 57 85.5 C 57 85.300781 56.960938 85.109375 56.886719 84.925781 C 56.808594 84.742188 56.703125 84.578125 56.5625 84.4375 C 56.421875 84.296875 56.257812 84.191406 56.074219 84.113281 C 55.890625 84.039062 55.699219 84 55.5 84 L 21 84 L 21 10.5 C 21 10.007812 21.046875 9.519531 21.144531 9.035156 C 21.238281 8.554688 21.382812 8.085938 21.570312 7.628906 C 21.757812 7.175781 21.992188 6.742188 22.265625 6.332031 C 22.539062 5.921875 22.847656 5.542969 23.195312 5.195312 C 23.542969 4.847656 23.921875 4.539062 24.332031 4.265625 C 24.742188 3.992188 25.175781 3.757812 25.628906 3.570312 C 26.085938 3.382812 26.554688 3.238281 27.035156 3.144531 C 27.519531 3.046875 28.007812 3 28.5 3 L 75.164062 3 C 74.15625 3.988281 73.375 5.128906 72.824219 6.429688 C 72.277344 7.730469 72 9.089844 72 10.5 L 72 69 L 75 69 L 75 12 L 91.5 12 C 91.699219 12 91.890625 11.960938 92.074219 11.886719 C 92.257812 11.808594 92.421875 11.703125 92.5625 11.5625 C 92.703125 11.421875 92.808594 11.257812 92.886719 11.074219 C 92.960938 10.890625 93 10.699219 93 10.5 C 93 9.8125 92.933594 9.128906 92.796875 8.453125 C 92.664062 7.773438 92.464844 7.117188 92.199219 6.480469 C 91.9375 5.84375 91.613281 5.238281 91.230469 4.667969 C 90.847656 4.09375 90.414062 3.5625 89.925781 3.074219 C 89.4375 2.585938 88.90625 2.152344 88.332031 1.769531 C 87.761719 1.386719 87.15625 1.0625 86.519531 0.800781 C 85.882812 0.535156 85.226562 0.335938 84.546875 0.203125 C 83.871094 0.0664062 83.1875 0 82.5 0 Z M 57.164062 93 L 13.5 93 C 13.070312 93 12.644531 92.964844 12.222656 92.890625 C 11.800781 92.816406 11.386719 92.710938 10.980469 92.566406 C 10.578125 92.421875 10.1875 92.242188 9.816406 92.03125 C 9.441406 91.824219 9.089844 91.582031 8.753906 91.308594 C 8.421875 91.039062 8.117188 90.742188 7.835938 90.417969 C 7.554688 90.09375 7.300781 89.746094 7.082031 89.378906 C 6.859375 89.011719 6.667969 88.628906 6.511719 88.230469 C 6.355469 87.832031 6.234375 87.421875 6.148438 87 L 54.148438 87 C 54.304688 88.140625 54.640625 89.222656 55.160156 90.25 C 55.675781 91.277344 56.34375 92.195312 57.164062 93 Z M 75.164062 9 C 75.25 8.578125 75.371094 8.167969 75.527344 7.769531 C 75.683594 7.367188 75.871094 6.984375 76.09375 6.617188 C 76.316406 6.25 76.566406 5.902344 76.847656 5.578125 C 77.128906 5.253906 77.4375 4.957031 77.769531 4.683594 C 78.101562 4.414062 78.453125 4.171875 78.828125 3.960938 C 79.203125 3.75 79.589844 3.574219 79.996094 3.429688 C 80.398438 3.285156 80.8125 3.175781 81.238281 3.101562 C 81.660156 3.027344 82.085938 2.992188 82.515625 2.992188 C 82.945312 2.992188 83.371094 3.027344 83.792969 3.101562 C 84.214844 3.175781 84.628906 3.285156 85.035156 3.429688 C 85.4375 3.574219 85.828125 3.75 86.203125 3.960938 C 86.574219 4.171875 86.929688 4.414062 87.261719 4.683594 C 87.59375 4.957031 87.902344 5.253906 88.183594 5.578125 C 88.464844 5.902344 88.714844 6.25 88.9375 6.617188 C 89.160156 6.984375 89.347656 7.367188 89.503906 7.769531 C 89.660156 8.167969 89.78125 8.578125 89.863281 9 Z M 75.164062 9 " fill-opacity="1" fill-rule="nonzero"/><path fill="#ffffff" d="M 28.5 64.5 L 40.5 64.5 L 40.5 67.5 L 28.5 67.5 Z M 28.5 64.5 " fill-opacity="1" fill-rule="nonzero"/><path fill="#ffffff" d="M 28.5 72 L 40.5 72 L 40.5 75 L 28.5 75 Z M 28.5 72 " fill-opacity="1" fill-rule="nonzero"/><path fill="#ffffff" d="M 28.5 49.5 L 40.5 49.5 L 40.5 52.5 L 28.5 52.5 Z M 28.5 49.5 " fill-opacity="1" fill-rule="nonzero"/><path fill="#ffffff" d="M 28.5 57 L 40.5 57 L 40.5 60 L 28.5 60 Z M 28.5 57 " fill-opacity="1" fill-rule="nonzero"/><path fill="#ffffff" d="M 52.5 49.5 L 64.5 49.5 L 64.5 52.5 L 52.5 52.5 Z M 52.5 49.5 " fill-opacity="1" fill-rule="nonzero"/><path fill="#ffffff" d="M 52.5 57 L 64.5 57 L 64.5 60 L 52.5 60 Z M 52.5 57 " fill-opacity="1" fill-rule="nonzero"/><path fill="#ffffff" d="M 52.5 64.5 L 64.5 64.5 L 64.5 67.5 L 52.5 67.5 Z M 52.5 64.5 " fill-opacity="1" fill-rule="nonzero"/><path fill="#ffffff" d="M 52.5 72 L 64.5 72 L 64.5 75 L 52.5 75 Z M 52.5 72 " fill-opacity="1" fill-rule="nonzero"/><path fill="#ffffff" d="M 72 72 L 75 72 L 75 75 L 72 75 Z M 72 72 " fill-opacity="1" fill-rule="nonzero"/></svg>