<svg xmlns="http://www.w3.org/2000/svg" xmlns:xlink="http://www.w3.org/1999/xlink" width="128" zoomAndPan="magnify" viewBox="0 0 96 95.999999" height="128" preserveAspectRatio="xMidYMid meet" version="1.0"><defs><clipPath id="dcad1fd14c"><path d="M 2.269531 0 L 93.769531 0 L 93.769531 96 L 2.269531 96 Z M 2.269531 0 " clip-rule="nonzero"/></clipPath></defs><g clip-path="url(#dcad1fd14c)"><path fill="#611232" d="M 2.28125 4.570312 C 2.28125 2.046875 4.328125 0 6.851562 0 L 89.136719 0 C 91.664062 0 93.710938 2.046875 93.710938 4.570312 L 93.710938 18.285156 C 93.710938 19.621094 93.125 20.886719 92.113281 21.757812 L 61.710938 47.816406 L 61.710938 82.285156 C 61.710938 84.015625 60.730469 85.601562 59.183594 86.375 L 40.898438 95.515625 C 39.492188 96.21875 37.824219 96.152344 36.480469 95.335938 C 35.136719 94.519531 34.304688 93.070312 34.28125 91.5 L 33.597656 47.8125 L 3.839844 21.722656 C 2.847656 20.855469 2.28125 19.601562 2.28125 18.285156 Z M 11.425781 9.144531 L 11.425781 16.214844 L 41.152344 42.277344 C 42.125 43.128906 42.6875 44.351562 42.710938 45.644531 L 43.308594 84.089844 L 52.566406 79.460938 L 52.566406 45.714844 C 52.566406 44.378906 53.152344 43.113281 54.164062 42.242188 L 84.566406 16.183594 L 84.566406 9.144531 Z M 11.425781 9.144531 " fill-opacity="1" fill-rule="evenodd"/></g></svg>