<svg xmlns="http://www.w3.org/2000/svg" xmlns:xlink="http://www.w3.org/1999/xlink" width="128" zoomAndPan="magnify" viewBox="0 0 96 95.999999" height="128" preserveAspectRatio="xMidYMid meet" version="1.0"><path fill="#611232" d="M 47.992188 18 C 31.453125 18 18 31.453125 18 47.992188 C 18 64.53125 31.453125 78 47.992188 78 C 64.53125 78 78 64.53125 78 47.992188 C 78 31.453125 64.53125 18 47.992188 18 Z M 47.992188 71.996094 C 34.757812 71.996094 23.988281 61.226562 23.988281 47.992188 C 23.988281 34.757812 34.757812 23.988281 47.992188 23.988281 C 61.226562 23.988281 71.996094 34.757812 71.996094 47.992188 C 71.996094 61.226562 61.226562 71.996094 47.992188 71.996094 Z M 47.992188 71.996094 " fill-opacity="1" fill-rule="nonzero"/><path fill="#611232" d="M 47.992188 11.992188 C 49.644531 11.992188 50.996094 10.644531 50.996094 8.992188 L 50.996094 3.003906 C 50.996094 1.351562 49.660156 0 47.992188 0 C 46.324219 0 44.988281 1.351562 44.988281 3.003906 L 44.988281 9.007812 C 44.988281 10.660156 46.339844 11.992188 47.992188 11.992188 Z M 47.992188 11.992188 " fill-opacity="1" fill-rule="nonzero"/><path fill="#611232" d="M 25.894531 15.726562 C 26.449219 16.695312 27.453125 17.21875 28.5 17.21875 C 29.007812 17.21875 29.53125 17.09375 29.992188 16.824219 C 31.421875 15.996094 31.914062 14.15625 31.089844 12.726562 L 28.085938 7.53125 C 27.261719 6.101562 25.417969 5.609375 23.988281 6.433594 C 22.558594 7.261719 22.066406 9.101562 22.890625 10.53125 Z M 25.894531 15.726562 " fill-opacity="1" fill-rule="nonzero"/><path fill="#611232" d="M 15.726562 25.894531 L 10.53125 22.890625 C 9.101562 22.066406 7.261719 22.558594 6.433594 23.988281 C 5.609375 25.417969 6.101562 27.261719 7.53125 28.085938 L 12.726562 31.089844 C 13.203125 31.359375 13.710938 31.488281 14.21875 31.488281 C 15.25 31.488281 16.265625 30.945312 16.824219 29.992188 C 17.648438 28.5625 17.15625 26.71875 15.726562 25.894531 Z M 15.726562 25.894531 " fill-opacity="1" fill-rule="nonzero"/><path fill="#611232" d="M 11.992188 47.992188 C 11.992188 46.339844 10.644531 44.988281 8.992188 44.988281 L 3.003906 44.988281 C 1.351562 44.988281 0 46.339844 0 47.992188 C 0 49.644531 1.351562 50.996094 3.003906 50.996094 L 9.007812 50.996094 C 10.660156 50.996094 11.992188 49.660156 11.992188 47.992188 Z M 11.992188 47.992188 " fill-opacity="1" fill-rule="nonzero"/><path fill="#611232" d="M 12.726562 64.894531 L 7.53125 67.898438 C 6.101562 68.722656 5.609375 70.566406 6.433594 71.996094 C 6.988281 72.964844 7.992188 73.488281 9.039062 73.488281 C 9.546875 73.488281 10.070312 73.363281 10.53125 73.09375 L 15.726562 70.089844 C 17.15625 69.261719 17.648438 67.421875 16.824219 65.992188 C 15.996094 64.5625 14.15625 64.070312 12.726562 64.894531 Z M 12.726562 64.894531 " fill-opacity="1" fill-rule="nonzero"/><path fill="#611232" d="M 29.992188 79.175781 C 28.5625 78.351562 26.71875 78.84375 25.894531 80.273438 L 22.90625 85.46875 C 22.082031 86.898438 22.574219 88.738281 24.003906 89.566406 C 24.480469 89.835938 24.988281 89.964844 25.496094 89.964844 C 26.53125 89.964844 27.546875 89.421875 28.101562 88.46875 L 31.105469 83.273438 C 31.929688 81.828125 31.4375 80.003906 29.992188 79.175781 Z M 29.992188 79.175781 " fill-opacity="1" fill-rule="nonzero"/><path fill="#611232" d="M 47.992188 83.988281 C 46.339844 83.988281 44.988281 85.339844 44.988281 86.992188 L 44.988281 92.996094 C 44.988281 94.648438 46.339844 96 47.992188 96 C 49.644531 96 50.996094 94.648438 50.996094 92.996094 L 50.996094 86.992188 C 50.996094 85.339844 49.660156 83.988281 47.992188 83.988281 Z M 47.992188 83.988281 " fill-opacity="1" fill-rule="nonzero"/><path fill="#611232" d="M 70.089844 80.273438 C 69.261719 78.84375 67.421875 78.351562 65.992188 79.175781 C 64.5625 80.003906 64.070312 81.84375 64.894531 83.273438 L 67.898438 88.46875 C 68.453125 89.4375 69.453125 89.964844 70.503906 89.964844 C 71.011719 89.964844 71.535156 89.835938 71.996094 89.566406 C 73.425781 88.738281 73.917969 86.898438 73.09375 85.46875 Z M 70.089844 80.273438 " fill-opacity="1" fill-rule="nonzero"/><path fill="#611232" d="M 88.46875 67.898438 L 83.273438 64.894531 C 81.84375 64.070312 80.003906 64.5625 79.175781 65.992188 C 78.351562 67.421875 78.84375 69.261719 80.273438 70.089844 L 85.46875 73.09375 C 85.945312 73.363281 86.453125 73.488281 86.960938 73.488281 C 87.992188 73.488281 89.011719 72.949219 89.566406 71.996094 C 90.390625 70.566406 89.898438 68.722656 88.46875 67.898438 Z M 88.46875 67.898438 " fill-opacity="1" fill-rule="nonzero"/><path fill="#611232" d="M 92.996094 44.988281 L 86.992188 44.988281 C 85.339844 44.988281 83.988281 46.339844 83.988281 47.992188 C 83.988281 49.644531 85.339844 50.996094 86.992188 50.996094 L 92.996094 50.996094 C 94.648438 50.996094 96 49.644531 96 47.992188 C 96 46.339844 94.648438 44.988281 92.996094 44.988281 Z M 92.996094 44.988281 " fill-opacity="1" fill-rule="nonzero"/><path fill="#611232" d="M 81.765625 31.503906 C 82.273438 31.503906 82.796875 31.375 83.257812 31.105469 L 88.453125 28.101562 C 89.882812 27.277344 90.375 25.433594 89.550781 24.003906 C 88.722656 22.574219 86.882812 22.082031 85.453125 22.90625 L 80.273438 25.894531 C 78.84375 26.71875 78.351562 28.5625 79.175781 29.992188 C 79.734375 30.960938 80.734375 31.503906 81.765625 31.503906 Z M 81.765625 31.503906 " fill-opacity="1" fill-rule="nonzero"/><path fill="#611232" d="M 65.992188 16.824219 C 66.46875 17.09375 66.976562 17.21875 67.484375 17.21875 C 68.515625 17.21875 69.535156 16.679688 70.089844 15.726562 L 73.09375 10.53125 C 73.917969 9.101562 73.425781 7.261719 71.996094 6.433594 C 70.566406 5.609375 68.722656 6.101562 67.898438 7.53125 L 64.894531 12.726562 C 64.070312 14.15625 64.5625 15.996094 65.992188 16.824219 Z M 65.992188 16.824219 " fill-opacity="1" fill-rule="nonzero"/></svg>