<svg xmlns="http://www.w3.org/2000/svg" xmlns:xlink="http://www.w3.org/1999/xlink" width="128" zoomAndPan="magnify" viewBox="0 0 96 95.999999" height="128" preserveAspectRatio="xMidYMid meet" version="1.0"><path fill="#ffffff" d="M 84.792969 44.8125 L 28.703125 44.8125 C 26.945312 44.8125 25.515625 46.238281 25.515625 48 C 25.515625 49.761719 26.945312 51.1875 28.703125 51.1875 L 84.792969 51.1875 L 71.101562 64.882812 C 69.855469 66.125 69.855469 68.148438 71.101562 69.390625 C 72.34375 70.636719 74.367188 70.636719 75.609375 69.390625 L 94.746094 50.253906 C 95.992188 49.011719 95.992188 46.988281 94.746094 45.746094 L 75.609375 26.609375 C 74.367188 25.363281 72.34375 25.363281 71.101562 26.609375 C 69.855469 27.851562 69.855469 29.875 71.101562 31.117188 Z M 84.792969 44.8125 " fill-opacity="1" fill-rule="evenodd"/><path fill="#ffffff" d="M 57.410156 22.484375 L 57.410156 9.726562 C 57.410156 4.441406 53.125 0.160156 47.839844 0.160156 L 9.566406 0.160156 C 4.285156 0.160156 0 4.441406 0 9.726562 L 0 86.273438 C 0 91.558594 4.285156 95.839844 9.566406 95.839844 L 47.839844 95.839844 C 53.125 95.839844 57.410156 91.558594 57.410156 86.273438 C 57.410156 86.273438 57.410156 73.515625 57.410156 73.515625 C 57.410156 71.753906 55.980469 70.324219 54.21875 70.324219 C 52.457031 70.324219 51.03125 71.753906 51.03125 73.515625 L 51.03125 86.273438 C 51.03125 88.03125 49.601562 89.460938 47.839844 89.460938 C 47.839844 89.460938 9.566406 89.460938 9.566406 89.460938 C 7.808594 89.460938 6.378906 88.03125 6.378906 86.273438 L 6.378906 9.726562 C 6.378906 7.96875 7.808594 6.539062 9.566406 6.539062 C 9.566406 6.539062 47.839844 6.539062 47.839844 6.539062 C 49.601562 6.539062 51.03125 7.96875 51.03125 9.726562 L 51.03125 22.484375 C 51.03125 24.246094 52.457031 25.675781 54.21875 25.675781 C 55.980469 25.675781 57.410156 24.246094 57.410156 22.484375 Z M 57.410156 22.484375 " fill-opacity="1" fill-rule="evenodd"/></svg>