<svg xmlns="http://www.w3.org/2000/svg" xmlns:xlink="http://www.w3.org/1999/xlink" width="128" zoomAndPan="magnify" viewBox="0 0 96 95.999999" height="128" preserveAspectRatio="xMidYMid meet" version="1.0"><defs><g/><clipPath id="e03c33dc94"><path d="M 75.527344 68.800781 L 84.929688 68.800781 L 84.929688 77.800781 L 75.527344 77.800781 Z M 75.527344 68.800781 " clip-rule="nonzero"/></clipPath></defs><g fill="#8b2750" fill-opacity="1"><g transform="translate(4.991332, 78.000004)"><g><path d="M 18.71875 -25.078125 L 18.71875 -9.453125 L 45.984375 -9.453125 L 45.984375 0 L 7.421875 0 L 7.421875 -57.109375 L 45.359375 -57.109375 L 45.359375 -47.65625 L 18.71875 -47.65625 L 18.71875 -34.296875 L 42 -34.296875 L 42 -25.078125 Z M 18.71875 -25.078125 "/></g></g></g><g fill="#611232" fill-opacity="1"><g transform="translate(40.329046, 78.000004)"><g><path d="M 45.78125 -57.109375 L 45.78125 -47.625 L 29.296875 -47.625 L 29.296875 0 L 18.046875 0 L 18.046875 -47.625 L 1.5625 -47.625 L 1.5625 -57.109375 Z M 45.78125 -57.109375 "/></g></g></g><g clip-path="url(#e03c33dc94)"><path fill="#8b2750" d="M 75.527344 68.800781 L 84.914062 68.800781 L 84.914062 77.800781 L 75.527344 77.800781 Z M 75.527344 68.800781 " fill-opacity="1" fill-rule="nonzero"/></g></svg>