<svg xmlns="http://www.w3.org/2000/svg" xmlns:xlink="http://www.w3.org/1999/xlink" width="128" zoomAndPan="magnify" viewBox="0 0 96 95.999999" height="128" preserveAspectRatio="xMidYMid meet" version="1.0"><defs><clipPath id="e37cfeb093"><path d="M 0 14.398438 L 96 14.398438 L 96 81.898438 L 0 81.898438 Z M 0 14.398438 " clip-rule="nonzero"/></clipPath></defs><g clip-path="url(#e37cfeb093)"><path fill="#ffffff" d="M 5.253906 14.566406 C 4.9375 14.558594 4.625 14.585938 4.3125 14.644531 C 4 14.703125 3.699219 14.789062 3.40625 14.910156 C 3.113281 15.027344 2.832031 15.171875 2.566406 15.347656 C 2.304688 15.519531 2.058594 15.71875 1.832031 15.941406 C 1.605469 16.160156 1.40625 16.402344 1.230469 16.667969 C 1.050781 16.929688 0.902344 17.207031 0.78125 17.496094 C 0.65625 17.789062 0.566406 18.089844 0.503906 18.402344 C 0.441406 18.710938 0.410156 19.023438 0.410156 19.339844 C 0.410156 19.65625 0.441406 19.972656 0.503906 20.28125 C 0.566406 20.589844 0.65625 20.890625 0.78125 21.183594 C 0.902344 21.476562 1.050781 21.753906 1.230469 22.015625 C 1.40625 22.277344 1.605469 22.519531 1.832031 22.742188 C 2.058594 22.964844 2.304688 23.164062 2.566406 23.335938 C 2.832031 23.507812 3.113281 23.65625 3.40625 23.773438 C 3.699219 23.890625 4 23.980469 4.3125 24.035156 C 4.625 24.09375 4.9375 24.121094 5.253906 24.117188 L 91.222656 24.117188 C 91.539062 24.121094 91.855469 24.09375 92.164062 24.035156 C 92.476562 23.980469 92.777344 23.890625 93.074219 23.773438 C 93.367188 23.65625 93.644531 23.507812 93.910156 23.335938 C 94.175781 23.164062 94.417969 22.964844 94.644531 22.742188 C 94.871094 22.519531 95.070312 22.277344 95.25 22.015625 C 95.425781 21.753906 95.574219 21.476562 95.699219 21.183594 C 95.820312 20.890625 95.914062 20.589844 95.972656 20.28125 C 96.035156 19.972656 96.066406 19.65625 96.066406 19.339844 C 96.066406 19.023438 96.035156 18.710938 95.972656 18.402344 C 95.914062 18.089844 95.820312 17.789062 95.699219 17.496094 C 95.574219 17.207031 95.425781 16.929688 95.25 16.667969 C 95.070312 16.402344 94.871094 16.160156 94.644531 15.941406 C 94.417969 15.71875 94.175781 15.519531 93.910156 15.347656 C 93.644531 15.171875 93.367188 15.027344 93.074219 14.910156 C 92.777344 14.789062 92.476562 14.703125 92.164062 14.644531 C 91.855469 14.585938 91.539062 14.558594 91.222656 14.566406 Z M 5.253906 43.222656 C 4.9375 43.21875 4.625 43.242188 4.3125 43.300781 C 4 43.359375 3.699219 43.449219 3.40625 43.566406 C 3.113281 43.683594 2.832031 43.828125 2.566406 44.003906 C 2.304688 44.175781 2.058594 44.375 1.832031 44.597656 C 1.605469 44.820312 1.40625 45.0625 1.230469 45.324219 C 1.050781 45.585938 0.902344 45.863281 0.78125 46.152344 C 0.65625 46.445312 0.566406 46.746094 0.503906 47.058594 C 0.441406 47.367188 0.410156 47.679688 0.410156 47.996094 C 0.410156 48.3125 0.441406 48.628906 0.503906 48.9375 C 0.566406 49.25 0.65625 49.550781 0.78125 49.839844 C 0.902344 50.132812 1.050781 50.410156 1.230469 50.671875 C 1.40625 50.933594 1.605469 51.175781 1.832031 51.398438 C 2.058594 51.621094 2.304688 51.820312 2.566406 51.992188 C 2.832031 52.164062 3.113281 52.3125 3.40625 52.429688 C 3.699219 52.546875 4 52.636719 4.3125 52.695312 C 4.625 52.75 4.9375 52.777344 5.253906 52.773438 L 91.222656 52.773438 C 91.539062 52.777344 91.855469 52.75 92.164062 52.695312 C 92.476562 52.636719 92.777344 52.546875 93.074219 52.429688 C 93.367188 52.3125 93.644531 52.164062 93.910156 51.992188 C 94.175781 51.820312 94.417969 51.621094 94.644531 51.398438 C 94.871094 51.175781 95.070312 50.933594 95.25 50.671875 C 95.425781 50.410156 95.574219 50.132812 95.699219 49.839844 C 95.820312 49.550781 95.914062 49.25 95.972656 48.9375 C 96.035156 48.628906 96.066406 48.3125 96.066406 47.996094 C 96.066406 47.679688 96.035156 47.367188 95.972656 47.058594 C 95.914062 46.746094 95.820312 46.445312 95.699219 46.152344 C 95.574219 45.863281 95.425781 45.585938 95.25 45.324219 C 95.070312 45.0625 94.871094 44.820312 94.644531 44.597656 C 94.417969 44.375 94.175781 44.175781 93.910156 44.003906 C 93.644531 43.828125 93.367188 43.683594 93.074219 43.566406 C 92.777344 43.449219 92.476562 43.359375 92.164062 43.300781 C 91.855469 43.242188 91.539062 43.21875 91.222656 43.222656 Z M 5.253906 71.878906 C 4.9375 71.875 4.625 71.902344 4.3125 71.957031 C 4 72.015625 3.699219 72.105469 3.40625 72.222656 C 3.113281 72.339844 2.832031 72.484375 2.566406 72.660156 C 2.304688 72.832031 2.058594 73.03125 1.832031 73.253906 C 1.605469 73.476562 1.40625 73.71875 1.230469 73.980469 C 1.050781 74.242188 0.902344 74.519531 0.78125 74.8125 C 0.65625 75.101562 0.566406 75.402344 0.503906 75.714844 C 0.441406 76.023438 0.410156 76.335938 0.410156 76.65625 C 0.410156 76.972656 0.441406 77.285156 0.503906 77.59375 C 0.566406 77.90625 0.65625 78.207031 0.78125 78.496094 C 0.902344 78.789062 1.050781 79.066406 1.230469 79.328125 C 1.40625 79.589844 1.605469 79.832031 1.832031 80.054688 C 2.058594 80.277344 2.304688 80.476562 2.566406 80.648438 C 2.832031 80.824219 3.113281 80.96875 3.40625 81.085938 C 3.699219 81.203125 4 81.292969 4.3125 81.351562 C 4.625 81.410156 4.9375 81.433594 5.253906 81.429688 L 91.222656 81.429688 C 91.539062 81.433594 91.855469 81.410156 92.164062 81.351562 C 92.476562 81.292969 92.777344 81.203125 93.074219 81.085938 C 93.367188 80.96875 93.644531 80.824219 93.910156 80.648438 C 94.175781 80.476562 94.417969 80.277344 94.644531 80.054688 C 94.871094 79.832031 95.070312 79.589844 95.25 79.328125 C 95.425781 79.066406 95.574219 78.789062 95.699219 78.496094 C 95.820312 78.207031 95.914062 77.90625 95.976562 77.59375 C 96.035156 77.285156 96.066406 76.972656 96.066406 76.65625 C 96.066406 76.335938 96.035156 76.023438 95.976562 75.714844 C 95.914062 75.402344 95.820312 75.101562 95.699219 74.8125 C 95.574219 74.519531 95.425781 74.242188 95.25 73.980469 C 95.070312 73.71875 94.871094 73.476562 94.644531 73.253906 C 94.417969 73.03125 94.175781 72.832031 93.910156 72.660156 C 93.644531 72.484375 93.367188 72.339844 93.074219 72.222656 C 92.777344 72.105469 92.476562 72.015625 92.164062 71.957031 C 91.855469 71.902344 91.539062 71.875 91.222656 71.878906 Z M 5.253906 71.878906 " fill-opacity="1" fill-rule="nonzero"/></g></svg>