<svg xmlns="http://www.w3.org/2000/svg" xmlns:xlink="http://www.w3.org/1999/xlink" width="128" zoomAndPan="magnify" viewBox="0 0 96 95.999999" height="128" preserveAspectRatio="xMidYMid meet" version="1.0"><path fill="#ffffff" d="M 35.570312 67.441406 L 32.339844 70.671875 C 31.945312 71.066406 31.308594 71.066406 30.914062 70.671875 L 29.054688 68.8125 C 28.113281 67.871094 29.542969 66.445312 30.480469 67.382812 L 31.625 68.53125 L 34.144531 66.011719 C 35.082031 65.074219 36.511719 66.5 35.570312 67.441406 Z M 70.300781 29.292969 L 45.921875 29.292969 C 44.605469 29.292969 44.585938 31.320312 45.921875 31.320312 L 70.300781 31.320312 C 71.613281 31.320312 71.632812 29.292969 70.300781 29.292969 Z M 34.144531 46.984375 L 31.625 49.503906 L 30.480469 48.355469 C 29.542969 47.417969 28.113281 48.84375 29.054688 49.785156 L 30.914062 51.644531 C 31.308594 52.039062 31.945312 52.039062 32.339844 51.644531 L 35.570312 48.414062 C 36.511719 47.472656 35.082031 46.046875 34.144531 46.984375 Z M 70.300781 53.109375 L 45.921875 53.109375 C 44.605469 53.109375 44.585938 55.136719 45.921875 55.136719 L 70.300781 55.136719 C 71.613281 55.136719 71.632812 53.128906 70.300781 53.109375 Z M 89.945312 70.800781 C 89.945312 70.800781 77.90625 77.226562 77.90625 77.207031 L 77.90625 84.25 C 77.90625 86.242188 76.292969 87.855469 74.300781 87.855469 L 57.941406 87.855469 L 43.460938 95.578125 C 42.914062 95.859375 42.351562 95.988281 41.789062 95.988281 C 40.511719 95.988281 39.253906 95.296875 38.613281 94.09375 L 35.289062 87.875 L 21.671875 87.875 C 19.699219 87.875 18.082031 86.261719 18.082031 84.269531 L 18.082031 55.53125 L 4.578125 30.175781 C 3.640625 28.484375 4.335938 26.175781 6.0625 25.308594 L 18.082031 18.90625 L 18.082031 11.863281 C 18.082031 9.890625 19.699219 8.273438 21.671875 8.273438 L 38.070312 8.273438 L 52.550781 0.554688 C 53.394531 0.105469 54.371094 0.0117188 55.292969 0.292969 C 56.214844 0.574219 56.964844 1.195312 57.414062 2.039062 L 60.722656 8.253906 L 74.339844 8.253906 C 76.328125 8.253906 77.945312 9.871094 77.945312 11.84375 L 77.945312 40.582031 L 91.449219 65.917969 C 92.351562 67.664062 91.695312 69.84375 89.945312 70.800781 Z M 18.066406 21.214844 L 7.003906 27.113281 C 6.25 27.488281 5.949219 28.503906 6.34375 29.234375 L 18.066406 51.230469 Z M 42.371094 8.273438 L 58.410156 8.273438 L 55.613281 2.996094 C 55.234375 2.246094 54.222656 1.945312 53.488281 2.339844 Z M 53.621094 87.855469 L 37.582031 87.855469 L 40.398438 93.136719 C 40.8125 93.90625 41.75 94.1875 42.519531 93.792969 Z M 75.898438 11.863281 C 75.898438 10.996094 75.183594 10.304688 74.320312 10.304688 L 21.652344 10.304688 C 20.789062 10.304688 20.09375 10.996094 20.09375 11.863281 L 20.09375 84.25 C 20.09375 85.113281 20.789062 85.828125 21.652344 85.828125 L 74.320312 85.828125 C 75.183594 85.828125 75.898438 85.113281 75.898438 84.25 Z M 89.628906 66.875 L 77.925781 44.902344 L 77.925781 74.914062 L 88.988281 69.019531 C 89.738281 68.605469 90.039062 67.648438 89.628906 66.875 Z M 45.921875 26.511719 L 57.695312 26.511719 C 58.261719 26.511719 58.710938 26.0625 58.710938 25.5 C 58.710938 24.933594 58.261719 24.484375 57.695312 24.484375 L 45.921875 24.484375 C 44.585938 24.484375 44.585938 26.511719 45.921875 26.511719 Z M 45.921875 45.519531 L 57.695312 45.519531 C 58.261719 45.519531 58.710938 45.070312 58.710938 44.507812 C 58.710938 43.941406 58.261719 43.492188 57.695312 43.492188 L 45.921875 43.492188 C 44.585938 43.492188 44.585938 45.519531 45.921875 45.519531 Z M 39.757812 68.339844 C 39.402344 78.183594 25.222656 78.183594 24.882812 68.339844 C 24.882812 64.246094 28.226562 60.902344 32.320312 60.902344 C 36.414062 60.902344 39.757812 64.226562 39.757812 68.339844 Z M 32.320312 62.914062 C 25.164062 63.140625 25.164062 73.507812 32.320312 73.730469 C 39.457031 73.527344 39.457031 63.140625 32.320312 62.914062 Z M 39.757812 30.308594 C 39.402344 40.148438 25.222656 40.148438 24.882812 30.308594 C 24.882812 26.210938 28.226562 22.867188 32.320312 22.867188 C 36.414062 22.867188 39.757812 26.210938 39.757812 30.308594 Z M 32.320312 24.898438 C 25.164062 25.121094 25.164062 35.492188 32.320312 35.714844 C 39.457031 35.492188 39.457031 25.121094 32.320312 24.898438 Z M 70.300781 72.136719 L 45.921875 72.136719 C 44.605469 72.136719 44.585938 74.164062 45.921875 74.164062 L 70.300781 74.164062 C 71.613281 74.144531 71.632812 72.136719 70.300781 72.136719 Z M 45.921875 64.527344 L 57.695312 64.527344 C 58.261719 64.527344 58.710938 64.078125 58.710938 63.515625 C 58.710938 62.949219 58.261719 62.5 57.695312 62.5 L 45.921875 62.5 C 44.585938 62.519531 44.585938 64.527344 45.921875 64.527344 Z M 70.300781 67.328125 L 45.921875 67.328125 C 44.605469 67.328125 44.585938 69.355469 45.921875 69.355469 L 70.300781 69.355469 C 71.613281 69.335938 71.632812 67.328125 70.300781 67.328125 Z M 70.300781 34.101562 L 45.921875 34.101562 C 44.605469 34.101562 44.585938 36.128906 45.921875 36.128906 L 70.300781 36.128906 C 71.613281 36.128906 71.632812 34.101562 70.300781 34.101562 Z M 39.757812 49.316406 C 39.402344 59.15625 25.222656 59.15625 24.882812 49.316406 C 24.882812 45.21875 28.226562 41.875 32.320312 41.875 C 36.414062 41.875 39.757812 45.21875 39.757812 49.316406 Z M 32.320312 43.90625 C 25.164062 44.128906 25.164062 54.5 32.320312 54.722656 C 39.457031 54.5 39.457031 44.128906 32.320312 43.90625 Z M 70.300781 48.300781 L 45.921875 48.300781 C 44.605469 48.300781 44.585938 50.328125 45.921875 50.328125 L 70.300781 50.328125 C 71.613281 50.328125 71.632812 48.320312 70.300781 48.300781 Z M 34.144531 27.976562 L 31.625 30.496094 L 30.480469 29.347656 C 29.542969 28.410156 28.113281 29.835938 29.054688 30.777344 L 30.914062 32.636719 C 31.289062 33.03125 31.964844 33.03125 32.339844 32.636719 L 35.570312 29.40625 C 36.511719 28.464844 35.082031 27.039062 34.144531 27.976562 Z M 34.144531 27.976562 " fill-opacity="1" fill-rule="nonzero"/></svg>