<svg xmlns="http://www.w3.org/2000/svg" xmlns:xlink="http://www.w3.org/1999/xlink" width="128" zoomAndPan="magnify" viewBox="0 0 96 95.999999" height="128" preserveAspectRatio="xMidYMid meet" version="1.0"><path fill="#ffffff" d="M 56.90625 95.5 L 38.710938 95.5 C 38.40625 95.515625 38.101562 95.5 37.796875 95.453125 C 37.496094 95.410156 37.203125 95.335938 36.914062 95.230469 C 36.625 95.128906 36.351562 95 36.089844 94.84375 C 35.828125 94.6875 35.582031 94.503906 35.355469 94.300781 C 35.128906 94.09375 34.921875 93.871094 34.742188 93.625 C 34.558594 93.378906 34.402344 93.121094 34.269531 92.84375 C 34.136719 92.570312 34.035156 92.28125 33.957031 91.988281 C 33.882812 91.691406 33.835938 91.390625 33.820312 91.085938 L 32.175781 80.953125 C 30.101562 80.105469 28.167969 79.015625 26.375 77.675781 L 16.214844 81.90625 C 15.109375 82.394531 13.984375 82.4375 12.84375 82.03125 C 11.636719 81.640625 10.734375 80.882812 10.144531 79.753906 L 1.121094 64.089844 C 0.820312 63.589844 0.621094 63.050781 0.523438 62.472656 C 0.425781 61.898438 0.433594 61.324219 0.546875 60.75 C 0.664062 60.179688 0.875 59.644531 1.1875 59.152344 C 1.5 58.660156 1.890625 58.238281 2.359375 57.890625 L 10.546875 51.339844 C 10.394531 50.230469 10.332031 49.117188 10.359375 48 C 10.382812 47.136719 10.472656 46.28125 10.636719 45.433594 L 10.738281 44.808594 L 2.203125 38 C 1.914062 37.769531 1.691406 37.484375 1.53125 37.148438 C 1.027344 36.394531 0.730469 35.5625 0.640625 34.660156 C 0.554688 33.757812 0.683594 32.882812 1.03125 32.046875 L 10.199219 15.660156 C 10.316406 15.460938 10.453125 15.28125 10.613281 15.113281 C 10.941406 14.683594 11.332031 14.320312 11.78125 14.023438 C 12.230469 13.726562 12.71875 13.515625 13.242188 13.386719 C 13.765625 13.257812 14.296875 13.21875 14.835938 13.269531 C 15.371094 13.320312 15.886719 13.460938 16.375 13.691406 L 26.375 17.855469 C 27.953125 16.738281 29.625 15.785156 31.140625 14.925781 L 32.074219 14.390625 L 33.359375 4.589844 C 33.398438 4.3125 33.480469 4.046875 33.605469 3.796875 C 33.808594 3.335938 34.066406 2.914062 34.382812 2.527344 C 34.699219 2.140625 35.058594 1.800781 35.46875 1.511719 C 35.875 1.222656 36.3125 0.992188 36.78125 0.820312 C 37.253906 0.648438 37.738281 0.542969 38.234375 0.5 L 56.425781 0.5 C 56.730469 0.484375 57.035156 0.5 57.335938 0.546875 C 57.640625 0.589844 57.933594 0.664062 58.222656 0.769531 C 58.511719 0.871094 58.785156 1 59.046875 1.15625 C 59.308594 1.3125 59.554688 1.496094 59.78125 1.699219 C 60.007812 1.902344 60.214844 2.128906 60.398438 2.375 C 60.578125 2.617188 60.738281 2.878906 60.867188 3.15625 C 61 3.429688 61.105469 3.714844 61.179688 4.011719 C 61.257812 4.308594 61.304688 4.609375 61.320312 4.914062 L 62.964844 15.046875 C 65.035156 15.894531 66.96875 16.988281 68.765625 18.324219 L 78.921875 14.09375 C 80.027344 13.609375 81.148438 13.570312 82.289062 13.96875 C 83.5 14.359375 84.402344 15.117188 84.988281 16.246094 L 94 31.910156 C 94.296875 32.410156 94.496094 32.949219 94.59375 33.527344 C 94.695312 34.101562 94.6875 34.675781 94.570312 35.25 C 94.457031 35.820312 94.242188 36.355469 93.929688 36.847656 C 93.617188 37.339844 93.230469 37.761719 92.761719 38.109375 L 84.570312 44.660156 C 84.71875 45.769531 84.78125 46.882812 84.753906 48 C 84.734375 48.863281 84.644531 49.71875 84.484375 50.566406 C 84.449219 50.761719 84.414062 50.953125 84.386719 51.148438 L 93.363281 58 C 93.824219 58.332031 94.207031 58.738281 94.515625 59.214844 C 94.820312 59.691406 95.03125 60.207031 95.140625 60.765625 C 95.253906 61.320312 95.257812 61.878906 95.160156 62.4375 C 95.058594 62.996094 94.863281 63.515625 94.566406 64 L 85.398438 79.886719 C 84.808594 80.949219 83.933594 81.664062 82.769531 82.03125 C 81.578125 82.441406 80.410156 82.378906 79.269531 81.835938 L 69.125 77.609375 L 68.296875 78.15625 C 66.765625 79.210938 65.160156 80.132812 63.480469 80.925781 L 61.769531 91.5 C 61.726562 91.753906 61.648438 91.992188 61.535156 92.226562 C 61.332031 92.679688 61.070312 93.101562 60.753906 93.484375 C 60.4375 93.871094 60.074219 94.207031 59.667969 94.496094 C 59.261719 94.78125 58.820312 95.011719 58.351562 95.183594 C 57.886719 95.351562 57.402344 95.457031 56.90625 95.5 Z M 38.753906 90.5 L 56.859375 90.5 C 56.753906 90.5 56.804688 90.390625 56.898438 90.246094 L 58.738281 78.746094 C 58.8125 78.285156 59.003906 77.878906 59.304688 77.523438 C 59.605469 77.167969 59.976562 76.917969 60.421875 76.769531 C 62.242188 76.054688 63.945312 75.128906 65.535156 73.988281 C 66.226562 73.539062 66.90625 73.09375 67.589844 72.683594 C 67.929688 72.480469 68.296875 72.363281 68.691406 72.335938 C 69.089844 72.304688 69.46875 72.367188 69.835938 72.519531 L 81.335938 77.308594 L 90.105469 61.738281 L 80.285156 54.300781 C 79.96875 54.0625 79.726562 53.769531 79.550781 53.417969 C 79.371094 53.066406 79.285156 52.695312 79.285156 52.300781 C 79.308594 51.4375 79.398438 50.582031 79.558594 49.734375 C 79.675781 49.160156 79.746094 48.578125 79.765625 47.988281 C 79.835938 46.804688 79.71875 45.636719 79.414062 44.488281 C 79.25 43.992188 79.242188 43.496094 79.390625 42.992188 C 79.539062 42.492188 79.816406 42.078125 80.226562 41.75 L 89.535156 34.300781 L 80.585938 18.609375 L 69.355469 23.5 C 68.933594 23.675781 68.496094 23.730469 68.042969 23.667969 C 67.589844 23.605469 67.1875 23.429688 66.828125 23.144531 C 64.773438 21.421875 62.476562 20.125 59.941406 19.25 C 59.496094 19.101562 59.125 18.851562 58.824219 18.496094 C 58.523438 18.140625 58.335938 17.734375 58.261719 17.273438 L 56.378906 5.5 L 38.285156 5.5 C 38.375 5.5 38.335938 5.601562 38.253906 5.726562 L 36.886719 16.226562 C 36.78125 17.023438 36.386719 17.632812 35.695312 18.050781 C 35.035156 18.445312 34.335938 18.839844 33.625 19.246094 C 31.765625 20.242188 29.992188 21.375 28.304688 22.644531 C 27.949219 22.925781 27.550781 23.097656 27.101562 23.160156 C 26.65625 23.226562 26.222656 23.171875 25.804688 23 L 14.5 18.324219 L 14.363281 18.433594 L 5.546875 34.25 L 14.90625 41.75 C 15.527344 42.25 15.839844 42.902344 15.839844 43.699219 C 15.820312 44.5625 15.726562 45.417969 15.566406 46.265625 C 15.226562 48.03125 15.277344 49.785156 15.714844 51.53125 C 15.878906 52.027344 15.886719 52.527344 15.738281 53.027344 C 15.589844 53.527344 15.3125 53.941406 14.90625 54.269531 L 5.589844 61.71875 L 14.550781 77.390625 L 25.78125 72.5 C 26.199219 72.332031 26.632812 72.28125 27.078125 72.34375 C 27.523438 72.40625 27.925781 72.578125 28.28125 72.855469 C 30.335938 74.574219 32.632812 75.875 35.171875 76.75 C 35.613281 76.898438 35.984375 77.148438 36.285156 77.503906 C 36.589844 77.859375 36.777344 78.265625 36.851562 78.726562 Z M 90.363281 61.949219 C 90.472656 62.0625 90.59375 62.15625 90.734375 62.226562 Z M 90.363281 61.949219 " fill-opacity="1" fill-rule="nonzero"/><path fill="#ffffff" d="M 47.808594 70.714844 C 47.066406 70.714844 46.324219 70.679688 45.582031 70.605469 C 44.84375 70.53125 44.109375 70.421875 43.378906 70.277344 C 42.648438 70.132812 41.929688 69.953125 41.214844 69.738281 C 40.503906 69.519531 39.804688 69.269531 39.117188 68.984375 C 38.429688 68.703125 37.757812 68.382812 37.101562 68.03125 C 36.445312 67.683594 35.808594 67.300781 35.191406 66.886719 C 34.570312 66.472656 33.976562 66.03125 33.398438 65.558594 C 32.824219 65.085938 32.273438 64.589844 31.75 64.0625 C 31.222656 63.535156 30.722656 62.984375 30.25 62.410156 C 29.777344 61.835938 29.335938 61.238281 28.921875 60.621094 C 28.511719 60 28.128906 59.363281 27.777344 58.707031 C 27.425781 58.050781 27.109375 57.378906 26.824219 56.691406 C 26.539062 56.003906 26.289062 55.304688 26.074219 54.59375 C 25.855469 53.882812 25.675781 53.160156 25.53125 52.429688 C 25.386719 51.703125 25.277344 50.96875 25.203125 50.226562 C 25.132812 49.484375 25.09375 48.742188 25.09375 48 C 25.09375 47.257812 25.132812 46.515625 25.203125 45.773438 C 25.277344 45.03125 25.386719 44.296875 25.53125 43.570312 C 25.675781 42.839844 25.855469 42.117188 26.074219 41.40625 C 26.289062 40.695312 26.539062 39.996094 26.824219 39.308594 C 27.109375 38.621094 27.425781 37.949219 27.777344 37.292969 C 28.128906 36.636719 28.511719 36 28.921875 35.378906 C 29.335938 34.761719 29.777344 34.164062 30.25 33.589844 C 30.722656 33.015625 31.222656 32.464844 31.75 31.9375 C 32.273438 31.410156 32.824219 30.914062 33.398438 30.441406 C 33.976562 29.96875 34.570312 29.527344 35.191406 29.113281 C 35.808594 28.699219 36.445312 28.316406 37.101562 27.96875 C 37.757812 27.617188 38.429688 27.296875 39.117188 27.015625 C 39.804688 26.730469 40.503906 26.480469 41.214844 26.261719 C 41.929688 26.046875 42.648438 25.867188 43.378906 25.722656 C 44.109375 25.578125 44.84375 25.46875 45.582031 25.394531 C 46.324219 25.320312 47.066406 25.285156 47.808594 25.285156 C 48.554688 25.285156 49.296875 25.320312 50.035156 25.394531 C 50.777344 25.46875 51.511719 25.578125 52.242188 25.722656 C 52.972656 25.867188 53.691406 26.046875 54.402344 26.261719 C 55.117188 26.480469 55.816406 26.730469 56.503906 27.015625 C 57.191406 27.296875 57.863281 27.617188 58.519531 27.96875 C 59.175781 28.316406 59.8125 28.699219 60.429688 29.113281 C 61.046875 29.527344 61.644531 29.96875 62.21875 30.441406 C 62.796875 30.914062 63.347656 31.410156 63.871094 31.9375 C 64.398438 32.464844 64.898438 33.015625 65.367188 33.589844 C 65.839844 34.164062 66.285156 34.761719 66.695312 35.378906 C 67.109375 36 67.492188 36.636719 67.84375 37.292969 C 68.195312 37.949219 68.511719 38.621094 68.796875 39.308594 C 69.082031 39.996094 69.332031 40.695312 69.546875 41.40625 C 69.761719 42.117188 69.945312 42.839844 70.089844 43.570312 C 70.234375 44.296875 70.34375 45.03125 70.414062 45.773438 C 70.488281 46.515625 70.523438 47.257812 70.523438 48 C 70.523438 48.742188 70.488281 49.484375 70.414062 50.226562 C 70.339844 50.964844 70.230469 51.699219 70.085938 52.429688 C 69.9375 53.160156 69.757812 53.878906 69.542969 54.589844 C 69.324219 55.300781 69.074219 56 68.789062 56.6875 C 68.503906 57.375 68.1875 58.046875 67.835938 58.703125 C 67.484375 59.359375 67.101562 59.996094 66.6875 60.613281 C 66.277344 61.230469 65.832031 61.828125 65.359375 62.402344 C 64.890625 62.976562 64.390625 63.527344 63.863281 64.054688 C 63.339844 64.582031 62.789062 65.078125 62.214844 65.550781 C 61.640625 66.023438 61.042969 66.464844 60.425781 66.878906 C 59.804688 67.292969 59.167969 67.675781 58.511719 68.027344 C 57.855469 68.375 57.1875 68.695312 56.5 68.980469 C 55.8125 69.265625 55.113281 69.515625 54.402344 69.730469 C 53.691406 69.949219 52.96875 70.128906 52.238281 70.273438 C 51.511719 70.421875 50.777344 70.53125 50.035156 70.601562 C 49.296875 70.675781 48.554688 70.714844 47.808594 70.714844 Z M 47.808594 30.285156 C 47.230469 30.285156 46.652344 30.3125 46.074219 30.371094 C 45.496094 30.425781 44.921875 30.511719 44.355469 30.625 C 43.785156 30.738281 43.222656 30.878906 42.667969 31.046875 C 42.113281 31.214844 41.566406 31.410156 41.03125 31.632812 C 40.496094 31.855469 39.972656 32.101562 39.460938 32.375 C 38.949219 32.648438 38.449219 32.949219 37.96875 33.269531 C 37.484375 33.59375 37.019531 33.9375 36.570312 34.304688 C 36.125 34.675781 35.695312 35.0625 35.285156 35.472656 C 34.875 35.882812 34.484375 36.3125 34.117188 36.761719 C 33.746094 37.210938 33.402344 37.675781 33.082031 38.15625 C 32.757812 38.640625 32.460938 39.136719 32.1875 39.648438 C 31.914062 40.160156 31.664062 40.683594 31.445312 41.222656 C 31.222656 41.757812 31.027344 42.300781 30.859375 42.859375 C 30.6875 43.414062 30.546875 43.976562 30.433594 44.542969 C 30.320312 45.113281 30.238281 45.6875 30.179688 46.261719 C 30.125 46.839844 30.09375 47.417969 30.09375 48 C 30.09375 48.582031 30.125 49.160156 30.179688 49.738281 C 30.238281 50.3125 30.320312 50.886719 30.433594 51.457031 C 30.546875 52.023438 30.6875 52.585938 30.859375 53.140625 C 31.027344 53.699219 31.222656 54.242188 31.445312 54.777344 C 31.664062 55.316406 31.914062 55.839844 32.1875 56.351562 C 32.460938 56.863281 32.757812 57.359375 33.082031 57.84375 C 33.402344 58.324219 33.746094 58.789062 34.117188 59.238281 C 34.484375 59.6875 34.875 60.117188 35.285156 60.527344 C 35.695312 60.9375 36.125 61.324219 36.570312 61.695312 C 37.019531 62.0625 37.484375 62.40625 37.96875 62.730469 C 38.449219 63.050781 38.949219 63.351562 39.460938 63.625 C 39.972656 63.898438 40.496094 64.144531 41.03125 64.367188 C 41.566406 64.589844 42.113281 64.785156 42.667969 64.953125 C 43.222656 65.121094 43.785156 65.261719 44.355469 65.375 C 44.921875 65.488281 45.496094 65.574219 46.074219 65.628906 C 46.652344 65.6875 47.230469 65.714844 47.808594 65.714844 C 48.390625 65.714844 48.96875 65.6875 49.546875 65.628906 C 50.125 65.574219 50.695312 65.488281 51.265625 65.375 C 51.835938 65.261719 52.398438 65.121094 52.953125 64.953125 C 53.507812 64.785156 54.054688 64.589844 54.589844 64.367188 C 55.125 64.144531 55.648438 63.898438 56.160156 63.625 C 56.671875 63.351562 57.167969 63.050781 57.652344 62.730469 C 58.132812 62.40625 58.601562 62.0625 59.046875 61.695312 C 59.496094 61.324219 59.925781 60.9375 60.335938 60.527344 C 60.746094 60.117188 61.136719 59.6875 61.503906 59.238281 C 61.871094 58.789062 62.21875 58.324219 62.539062 57.84375 C 62.863281 57.359375 63.160156 56.863281 63.433594 56.351562 C 63.707031 55.839844 63.953125 55.316406 64.175781 54.777344 C 64.398438 54.242188 64.59375 53.699219 64.761719 53.140625 C 64.929688 52.585938 65.070312 52.023438 65.183594 51.457031 C 65.296875 50.886719 65.382812 50.3125 65.441406 49.738281 C 65.496094 49.160156 65.523438 48.582031 65.523438 48 C 65.523438 47.421875 65.496094 46.839844 65.4375 46.265625 C 65.378906 45.6875 65.296875 45.113281 65.179688 44.546875 C 65.066406 43.976562 64.925781 43.414062 64.757812 42.859375 C 64.589844 42.304688 64.394531 41.757812 64.171875 41.222656 C 63.949219 40.6875 63.699219 40.164062 63.425781 39.652344 C 63.152344 39.140625 62.855469 38.644531 62.535156 38.164062 C 62.210938 37.679688 61.867188 37.214844 61.496094 36.765625 C 61.128906 36.320312 60.742188 35.890625 60.332031 35.480469 C 59.921875 35.070312 59.492188 34.679688 59.042969 34.3125 C 58.59375 33.945312 58.128906 33.597656 57.648438 33.277344 C 57.164062 32.953125 56.667969 32.65625 56.15625 32.382812 C 55.644531 32.109375 55.121094 31.859375 54.585938 31.640625 C 54.050781 31.417969 53.503906 31.222656 52.949219 31.050781 C 52.394531 30.882812 51.832031 30.742188 51.265625 30.628906 C 50.695312 30.515625 50.121094 30.429688 49.546875 30.371094 C 48.96875 30.316406 48.390625 30.285156 47.808594 30.285156 Z M 47.808594 30.285156 " fill-opacity="1" fill-rule="nonzero"/></svg>