<svg xmlns="http://www.w3.org/2000/svg" xmlns:xlink="http://www.w3.org/1999/xlink" width="128" zoomAndPan="magnify" viewBox="0 0 96 95.999999" height="128" preserveAspectRatio="xMidYMid meet" version="1.0"><defs><clipPath id="83ec8fdd86"><path d="M 8.878906 0 L 48 0 L 48 96 L 8.878906 96 Z M 8.878906 0 " clip-rule="nonzero"/></clipPath><clipPath id="aa4c1129ed"><path d="M 48 0 L 86.878906 0 L 86.878906 96 L 48 96 Z M 48 0 " clip-rule="nonzero"/></clipPath></defs><g clip-path="url(#83ec8fdd86)"><path fill="#611232" d="M 47.128906 19.121094 L 31.171875 1.203125 C 30.511719 0.460938 29.535156 -0.0078125 28.441406 -0.0078125 C 27.347656 -0.0078125 26.371094 0.460938 25.710938 1.203125 L 9.757812 19.121094 C 9.210938 19.734375 8.886719 20.527344 8.886719 21.394531 C 8.886719 23.320312 10.496094 24.878906 12.488281 24.878906 L 23.109375 24.878906 L 23.109375 95.996094 L 33.773438 95.996094 L 33.773438 24.878906 L 44.394531 24.878906 C 46.386719 24.878906 47.996094 23.320312 47.996094 21.394531 C 47.996094 20.527344 47.667969 19.734375 47.125 19.121094 Z M 47.128906 19.121094 " fill-opacity="1" fill-rule="nonzero"/></g><g clip-path="url(#aa4c1129ed)"><path fill="#611232" d="M 48.871094 76.863281 L 64.824219 94.785156 C 65.484375 95.523438 66.464844 95.996094 67.554688 95.996094 C 68.648438 95.996094 69.625 95.523438 70.285156 94.785156 L 86.242188 76.863281 C 86.785156 76.253906 87.113281 75.460938 87.113281 74.589844 C 87.113281 72.664062 85.5 71.105469 83.511719 71.105469 L 72.890625 71.105469 L 72.890625 -0.0078125 L 62.222656 -0.0078125 L 62.222656 71.105469 L 51.601562 71.105469 C 49.613281 71.105469 48 72.667969 48 74.59375 C 48 75.460938 48.328125 76.253906 48.871094 76.863281 Z M 48.871094 76.863281 " fill-opacity="1" fill-rule="nonzero"/></g></svg>